<?xml version="1.0" standalone="no"?>
<!DOCTYPE svg PUBLIC "-//W3C//DTD SVG 20010904//EN"
 "http://www.w3.org/TR/2001/REC-SVG-20010904/DTD/svg10.dtd">
<svg version="1.0" xmlns="http://www.w3.org/2000/svg"
 width="1237.000000pt" height="1280.000000pt" viewBox="0 0 1237.000000 1280.000000"
 preserveAspectRatio="xMidYMid meet">
<metadata>
Created by potrace 1.15, written by Peter Selinger 2001-2017
</metadata>
<g transform="translate(0.000000,1280.000000) scale(0.100000,-0.100000)"
fill="#000000" stroke="none">
<path d="M4214 12773 c3 -21 0 -35 -10 -44 -28 -23 -152 -22 -314 2 -85 13
-171 23 -190 23 -35 1 -35 0 -38 -45 -3 -50 18 -85 44 -75 25 10 135 17 346
24 136 5 211 11 219 19 17 17 5 53 -31 93 l-31 35 5 -32z"/>
<path d="M3335 12736 c-71 -14 -217 -56 -227 -66 -18 -14 292 13 336 30 33 12
33 28 0 40 -30 12 -31 12 -109 -4z"/>
<path d="M3549 12706 c-46 -53 -298 -128 -436 -130 -80 -1 -82 -2 -76 -24 7
-31 -10 -48 -89 -88 -69 -35 -86 -54 -46 -54 35 0 686 220 711 240 25 21 18
42 -20 67 -20 13 -24 12 -44 -11z"/>
<path d="M3840 12600 c-242 -19 -241 -40 3 -40 100 -1 202 -6 227 -12 25 -6
83 -12 130 -12 88 -1 110 -7 110 -31 0 -16 39 -28 145 -45 41 -7 105 -28 153
-51 101 -48 146 -54 150 -21 2 13 -3 33 -11 46 -13 19 -33 25 -123 40 -158 26
-197 45 -172 85 26 42 5 46 -265 47 -139 1 -295 -2 -347 -6z"/>
<path d="M3452 12525 c-60 -18 -72 -31 -72 -77 0 -55 -23 -61 -66 -14 -36 40
-41 41 -112 25 -54 -11 -94 -41 -86 -63 7 -19 -20 -32 -84 -40 -121 -15 -347
-115 -419 -185 -23 -23 -51 -41 -62 -41 -19 0 -38 -17 -28 -26 7 -7 91 23 249
92 80 34 192 77 248 95 75 23 113 40 140 65 33 30 38 32 43 16 5 -22 -14 -72
-34 -89 -8 -6 -66 -29 -129 -51 -244 -85 -416 -161 -461 -204 -18 -17 -44 -27
-76 -32 -53 -7 -93 -29 -93 -52 0 -12 4 -13 21 -3 15 8 24 8 32 0 20 -20 -9
-58 -68 -87 -47 -22 -61 -25 -76 -16 -25 16 -25 1 1 -57 18 -39 22 -42 37 -30
9 8 64 56 123 107 178 158 360 267 534 321 138 43 123 16 -36 -64 -60 -30
-140 -64 -179 -76 -38 -11 -69 -27 -69 -33 0 -18 -30 -43 -81 -69 -34 -17 -45
-29 -49 -52 -3 -20 -12 -31 -25 -33 -28 -5 -77 -44 -163 -126 -117 -113 -192
-221 -120 -174 13 9 109 90 213 181 202 177 225 193 250 184 28 -11 -8 -61
-102 -140 -181 -150 -382 -352 -426 -427 -43 -73 24 -21 216 168 111 109 216
208 234 220 40 29 64 28 93 -3 13 -14 28 -25 34 -25 6 0 36 21 66 46 30 25 78
57 105 70 48 23 115 32 115 17 0 -5 -21 -27 -47 -50 -54 -46 -51 -67 4 -38 42
23 74 71 67 100 -3 12 5 33 20 54 52 71 15 61 -184 -48 -141 -78 -170 -89
-170 -68 0 33 70 86 135 101 16 4 60 27 96 52 85 56 127 74 162 67 16 -3 27
-1 27 6 0 19 39 51 64 51 24 0 76 34 76 51 0 5 -10 9 -23 9 -30 0 -47 18 -47
48 0 21 -3 23 -30 17 -26 -6 -30 -4 -30 14 0 25 28 41 72 41 38 0 52 -8 61
-32 7 -20 16 -20 95 -9 28 4 52 5 52 2 0 -3 -17 -20 -37 -38 -21 -17 -35 -35
-31 -39 4 -4 144 -6 311 -5 397 3 644 -26 917 -105 46 -13 92 -24 102 -24 47
0 -7 56 -63 65 -40 7 -49 21 -27 43 20 20 66 13 155 -24 90 -37 137 -39 131
-7 -2 11 -22 21 -60 29 -31 7 -106 35 -165 63 -201 91 -421 148 -613 159
l-105 5 65 25 c126 47 244 30 526 -78 170 -65 255 -90 300 -90 l29 1 -30 24
c-42 35 -262 128 -385 164 -166 48 -384 99 -452 107 -62 7 -63 7 -45 -13 25
-29 22 -53 -8 -53 -17 0 -29 9 -40 30 -20 39 -62 67 -77 52 -6 -6 -11 -28 -12
-49 -1 -35 -3 -38 -34 -41 -42 -4 -62 12 -62 49 0 31 -6 33 -80 29 -43 -2
-123 -35 -146 -61 -20 -22 -17 -23 56 -20 l45 1 -29 -16 c-54 -31 -18 -39 169
-39 95 0 173 -1 172 -2 -1 -1 -40 -12 -87 -24 -66 -18 -113 -23 -208 -23 -114
-1 -124 -3 -140 -23 -20 -26 -61 -38 -98 -29 -24 6 -26 11 -21 41 9 54 54 136
103 185 24 25 44 49 44 53 0 11 -61 7 -108 -8z m988 -307 c181 -46 215 -67
179 -112 -25 -31 -42 -33 -76 -6 -14 11 -42 24 -62 30 -117 31 -458 59 -741
61 -74 0 -144 4 -155 8 -19 8 -19 9 5 20 46 21 192 29 470 27 260 -2 281 -3
380 -28z m-1234 -107 c-47 -52 -397 -214 -418 -193 -29 29 320 210 406 212 28
0 28 -1 12 -19z"/>
<path d="M2744 12388 c-17 -6 -44 -21 -60 -34 l-29 -23 40 0 c42 0 126 36 133
57 4 14 -39 14 -84 0z"/>
<path d="M3680 12090 c-47 -4 -113 -10 -146 -14 l-61 -8 -13 -41 c-7 -23 -19
-55 -27 -70 -12 -24 -18 -27 -44 -22 -67 15 -181 -50 -220 -126 -22 -45 -19
-59 15 -59 31 0 50 24 43 52 -9 36 3 46 83 62 101 21 161 53 182 95 9 19 23
41 31 48 36 36 204 55 341 38 46 -6 56 -5 56 8 0 8 -6 19 -12 25 -19 14 -131
21 -228 12z"/>
<path d="M4062 12050 c9 -6 81 -26 160 -46 289 -71 568 -174 821 -300 140 -71
185 -101 203 -136 13 -25 13 -29 -1 -34 -24 -9 -80 17 -236 112 -79 48 -180
104 -224 125 -266 127 -1099 266 -1182 197 -30 -25 -11 -30 90 -24 92 6 100 5
76 -8 -14 -8 -97 -32 -185 -54 -219 -55 -271 -75 -288 -116 -9 -23 -30 -41
-72 -63 -73 -39 -177 -73 -220 -73 -52 0 -82 -16 -98 -53 -36 -87 -368 -364
-391 -327 -10 16 12 45 77 101 212 180 362 335 356 367 -6 28 -25 23 -74 -21
-61 -55 -80 -62 -111 -42 -44 29 -83 0 -373 -280 -69 -66 -152 -140 -184 -164
-55 -41 -58 -45 -41 -58 40 -28 103 17 281 200 150 154 230 220 255 214 15 -4
17 1 12 29 -5 29 -3 34 15 34 64 0 29 -50 -188 -264 -94 -92 -201 -203 -236
-245 -75 -87 -144 -187 -144 -207 0 -20 40 -17 47 4 11 32 36 52 63 52 30 0
55 22 47 42 -10 30 71 143 128 178 72 44 75 10 5 -49 -40 -34 -51 -50 -56 -83
-5 -26 -25 -65 -59 -112 -69 -93 -78 -102 -231 -228 -467 -383 -848 -932
-1049 -1508 -129 -371 -188 -724 -189 -1128 l-1 -232 -62 -31 c-108 -54 -107
-87 2 -49 64 22 75 18 75 -31 0 -25 -7 -28 -97 -57 -132 -42 -279 -115 -321
-159 -18 -20 -47 -39 -64 -42 -34 -7 -51 -31 -21 -31 10 0 68 21 128 46 208
87 323 132 354 139 29 6 31 5 31 -22 0 -27 -6 -30 -128 -77 -178 -68 -325
-139 -339 -164 -9 -15 -27 -23 -62 -28 -51 -7 -111 -36 -111 -54 0 -6 10 -8
24 -4 35 8 48 -2 35 -29 -17 -37 -77 -72 -125 -72 l-42 0 18 -45 c9 -24 21
-45 26 -47 5 -2 63 45 129 103 185 163 339 259 514 319 57 19 70 21 75 9 8
-22 -170 -113 -279 -143 -28 -7 -45 -20 -57 -40 -9 -17 -33 -37 -54 -46 -51
-21 -73 -42 -67 -65 4 -14 -5 -23 -39 -38 -73 -32 -298 -260 -298 -301 0 -19
42 14 248 195 205 179 226 194 244 176 20 -20 -11 -59 -118 -150 -189 -159
-424 -405 -424 -443 0 -23 59 28 250 215 113 111 220 208 238 215 31 13 35 12
61 -13 15 -14 34 -26 42 -26 8 0 39 20 69 46 72 61 120 84 177 84 l47 0 -49
-44 c-55 -48 -54 -71 0 -41 43 23 78 74 64 92 -6 7 -7 18 -3 24 4 7 19 -31 35
-92 15 -57 27 -104 26 -104 -28 -15 -108 -37 -161 -45 -82 -13 -82 -13 -102
-53 -33 -64 -190 -215 -304 -293 -69 -47 -90 -54 -90 -28 0 19 42 61 199 199
174 153 257 258 222 279 -4 3 -34 -17 -65 -44 -55 -48 -88 -61 -101 -40 -3 6
-18 10 -33 10 -36 0 -99 -52 -317 -260 -98 -95 -199 -185 -222 -201 -49 -34
-53 -46 -19 -55 41 -10 86 24 248 186 184 186 252 243 279 235 17 -6 18 -4 7
20 -13 30 0 52 26 42 40 -16 13 -52 -202 -270 -210 -214 -303 -320 -351 -400
-27 -44 -22 -74 9 -57 11 6 20 17 20 24 0 19 25 38 62 45 28 6 34 12 39 43 7
45 67 127 121 167 76 56 97 26 24 -34 -42 -34 -58 -60 -70 -116 -3 -14 -26
-53 -51 -85 -89 -113 -171 -293 -158 -342 12 -49 54 -13 72 62 16 64 44 119
128 246 198 300 359 453 677 643 114 67 132 75 138 60 13 -34 8 -42 -48 -73
-30 -18 -91 -59 -135 -91 -43 -32 -86 -59 -95 -59 -20 0 -158 -130 -328 -309
-150 -158 -206 -229 -206 -260 0 -12 -11 -39 -25 -59 -29 -43 -32 -70 -8 -79
11 -4 25 4 44 25 34 38 51 40 71 10 14 -21 17 -21 33 -8 24 19 77 137 73 158
-3 12 -16 -2 -41 -40 -45 -70 -62 -75 -53 -15 18 115 121 246 336 425 125 104
381 282 405 282 15 0 31 -53 18 -57 -24 -8 -252 -167 -314 -218 -38 -32 -90
-86 -116 -119 -42 -57 -122 -205 -153 -286 -8 -19 -27 -51 -43 -70 -17 -19
-43 -63 -59 -98 -31 -68 -71 -222 -66 -253 2 -12 43 64 98 182 107 228 211
415 276 500 71 93 269 260 365 309 l39 20 15 -37 c13 -29 13 -38 3 -45 -7 -4
-83 -49 -168 -99 -85 -50 -163 -99 -174 -109 -10 -10 -28 -42 -40 -71 -12 -30
-54 -97 -94 -150 -40 -53 -72 -99 -72 -103 0 -4 -22 -55 -49 -114 -51 -112
-67 -162 -53 -162 16 0 38 34 101 155 118 226 323 485 384 485 15 0 27 -4 27
-9 0 -5 -46 -60 -103 -122 -139 -155 -172 -210 -131 -226 31 -12 63 16 98 84
57 114 155 196 187 156 18 -21 0 -46 -42 -58 -47 -14 -59 -23 -59 -45 0 -51
48 -29 156 73 44 40 93 83 110 95 l31 21 12 -26 c10 -23 9 -27 -11 -41 -13 -8
-63 -56 -113 -106 -158 -162 -292 -374 -353 -561 -62 -188 -48 -211 22 -37 59
144 74 162 136 162 25 0 55 7 67 15 12 9 45 54 74 102 56 93 159 208 233 261
l45 33 15 -29 15 -29 -53 -37 c-57 -39 -166 -147 -166 -165 0 -38 48 -14 167
85 43 35 80 64 84 64 8 0 42 -50 37 -54 -2 -2 -23 -16 -48 -33 -25 -17 -68
-55 -95 -84 -189 -201 -260 -454 -226 -804 15 -153 24 -188 79 -310 32 -71 46
-114 46 -147 1 -42 3 -47 28 -52 34 -7 155 -120 188 -176 40 -67 56 -80 99
-80 62 0 210 29 261 51 46 20 51 26 110 140 33 65 65 119 70 119 5 0 10 -28
12 -62 l3 -63 18 39 c32 67 21 226 -15 226 -7 0 -24 -9 -38 -20 -32 -25 -61
-25 -88 0 -25 24 -28 40 -7 40 27 0 36 40 36 155 -1 228 -43 404 -125 527 -43
66 -89 108 -116 108 -10 0 -61 -20 -112 -45 -51 -25 -94 -41 -96 -36 -2 6 8
27 22 48 14 21 26 50 26 65 0 38 28 50 115 50 90 0 122 -16 174 -85 65 -87 81
-125 81 -194 0 -69 9 -82 35 -53 10 11 24 20 31 20 7 0 31 -36 54 -79 45 -86
71 -116 94 -108 20 8 11 37 -43 147 l-42 85 48 -47 c58 -57 94 -140 118 -274
21 -117 32 -319 17 -328 -21 -13 -35 40 -44 169 -12 172 -16 186 -56 207 -53
26 -73 49 -103 116 -27 60 -44 76 -55 49 -2 -7 4 -72 16 -145 11 -72 20 -150
20 -174 0 -52 17 -118 31 -118 20 0 31 56 25 127 -7 75 6 106 24 59 35 -92 38
-538 5 -644 -9 -30 -14 -57 -11 -60 3 -3 18 0 32 7 24 10 26 10 19 -6 -12 -28
-11 -46 2 -50 23 -8 37 44 43 167 9 166 19 196 76 220 64 28 70 47 55 187 -13
116 -45 314 -57 350 -5 14 -1 12 20 -8 35 -33 72 -159 87 -289 14 -124 21
-142 54 -134 42 10 57 -43 63 -217 4 -125 1 -157 -17 -229 -34 -134 -84 -163
-79 -47 3 55 1 62 -16 62 -11 0 -26 -13 -36 -30 -10 -17 -28 -32 -46 -37 -36
-9 -62 -35 -124 -125 -47 -68 -80 -91 -80 -56 1 10 7 29 15 43 22 38 19 103
-6 134 -26 33 -54 33 -75 1 -23 -36 -12 -58 26 -50 27 6 30 4 30 -18 0 -13 -9
-32 -20 -42 -21 -19 -50 -14 -50 10 0 22 -18 19 -57 -11 -101 -77 -236 -73
-407 13 l-51 25 39 -40 c45 -47 124 -91 215 -121 81 -26 126 -27 158 -1 14 11
39 20 55 20 41 0 94 -25 108 -50 12 -22 11 -22 -26 -15 -56 12 -83 9 -134 -14
-90 -41 -278 -13 -300 44 -5 14 -20 25 -41 29 -44 9 -221 185 -249 249 -37 84
-167 233 -187 214 -9 -9 56 -124 111 -197 108 -144 299 -320 402 -371 45 -22
61 -24 199 -24 200 0 209 5 364 197 65 81 91 96 91 53 0 -69 -145 -250 -241
-301 -28 -15 -55 -18 -151 -16 -210 3 -354 49 -476 151 -79 66 -134 135 -224
282 -39 64 -84 131 -102 150 -26 28 -31 41 -31 84 0 34 -7 61 -20 80 -17 26
-20 27 -23 11 -7 -34 19 -138 57 -225 48 -113 125 -225 224 -328 204 -212 400
-300 612 -275 165 19 208 44 350 205 24 27 52 48 70 52 63 12 80 21 94 47 23
41 7 44 -38 9 -45 -36 -61 -34 -61 7 0 45 13 54 66 52 72 -4 73 -3 79 38 11
59 13 65 61 138 l46 69 -4 85 c-4 76 -9 97 -52 190 -69 152 -98 280 -63 280
19 0 34 -37 62 -156 27 -114 57 -184 80 -184 18 0 19 21 4 75 -16 57 -67 309
-64 313 2 2 12 -3 24 -10 22 -14 45 -80 55 -162 3 -27 19 -72 35 -100 35 -62
57 -160 65 -286 7 -107 -2 -163 -26 -168 -21 -4 -29 24 -19 68 10 44 -2 82
-23 74 -19 -7 -36 -64 -36 -124 0 -25 -7 -90 -15 -145 -8 -55 -15 -113 -15
-129 0 -27 2 -28 31 -22 l32 6 -6 -72 c-10 -132 -86 -326 -152 -393 -19 -19
-35 -43 -35 -53 0 -27 25 -46 52 -39 50 13 -165 -175 -224 -196 -33 -12 -18 7
67 88 47 44 85 86 85 93 0 25 -30 10 -106 -53 -116 -96 -175 -118 -182 -67 -3
19 5 26 45 43 26 11 65 27 85 36 39 16 58 47 39 66 -13 13 -129 -45 -184 -93
-36 -32 -39 -38 -28 -58 14 -26 56 -49 106 -60 l36 -7 -25 -38 c-30 -44 -31
-47 -11 -47 43 0 244 128 347 220 41 37 58 59 58 76 0 36 -18 64 -40 64 -25 0
-25 -2 5 53 55 97 145 417 145 512 0 57 -7 72 -41 89 -31 15 -32 50 -1 54 12
2 30 15 40 30 14 22 17 52 17 202 0 195 -14 267 -60 310 -31 29 -32 40 -4 40
12 0 41 -19 64 -43 49 -48 60 -87 71 -254 4 -70 11 -106 20 -114 25 -21 35 4
35 82 0 151 -33 244 -115 329 -110 114 -113 144 -9 84 43 -24 85 -46 93 -49
10 -3 24 -39 39 -97 31 -125 49 -167 61 -148 12 18 12 100 1 158 -9 46 -1 52
27 24 23 -23 49 -161 62 -332 11 -134 22 -180 53 -222 17 -22 20 -42 19 -115
-1 -147 -37 -310 -107 -488 -14 -36 85 68 104 110 25 52 38 148 51 369 12 217
13 306 2 306 -5 0 -15 -25 -22 -55 -7 -30 -16 -55 -20 -55 -9 0 -17 56 -25
170 -3 47 -8 109 -11 138 -3 29 -1 52 4 52 5 0 26 -25 46 -55 20 -30 39 -55
42 -55 3 0 2 34 -1 76 -8 76 -8 76 15 69 13 -4 33 -19 44 -32 12 -14 35 -27
50 -28 31 -4 46 -19 46 -47 0 -18 -5 -23 -51 -58 -37 -28 -53 -119 -53 -301 0
-124 3 -151 20 -186 l20 -39 -22 4 c-12 2 -31 -1 -43 -8 -25 -13 -17 -35 19
-53 26 -13 46 -66 36 -93 -6 -15 -11 -12 -35 17 l-29 34 5 -47 c7 -59 -5 -89
-74 -193 -58 -87 -64 -116 -32 -139 21 -14 21 -15 -14 -45 -22 -20 -37 -44
-41 -67 -5 -25 -14 -38 -34 -45 -28 -11 -72 2 -72 21 0 5 26 34 57 64 l57 54
-47 57 c-26 32 -47 65 -47 75 0 9 13 46 29 82 69 151 117 461 74 476 -19 6
-32 -38 -43 -151 -13 -139 -29 -195 -110 -384 -39 -89 -70 -165 -70 -169 0 -4
23 15 50 40 41 38 54 45 65 36 20 -16 7 -45 -60 -132 -30 -40 -55 -81 -55 -92
0 -19 0 -19 68 0 36 10 27 -28 -21 -88 -62 -76 -66 -87 -21 -54 146 109 388
345 452 441 37 56 39 65 15 65 -27 0 -38 -11 -61 -56 -25 -48 -85 -104 -112
-104 -25 0 -19 16 40 105 65 97 91 151 104 215 l11 55 73 2 c104 2 122 13 83
50 -27 26 -30 49 -41 258 -9 173 -22 314 -35 373 -5 20 -3 22 22 16 16 -4 29
-7 30 -8 1 -1 11 -44 22 -96 30 -137 50 -200 63 -200 12 0 5 202 -8 249 -6 21
-4 23 17 19 337 -75 507 -97 779 -105 581 -16 1128 107 1657 373 l162 81 18
-21 c18 -21 18 -21 -4 -3 -12 11 -23 14 -27 8 -6 -9 24 -24 49 -25 6 -1 32
-16 58 -35 65 -45 198 -106 277 -127 38 -10 125 -20 210 -24 80 -4 134 -8 120
-9 -16 -2 -3 -7 35 -16 76 -16 202 -76 280 -131 78 -56 242 -223 293 -299 23
-34 60 -97 83 -140 22 -44 38 -71 35 -60 -4 10 -9 40 -12 65 -3 39 -2 36 10
-17 8 -34 20 -71 26 -83 6 -12 9 -28 6 -36 -3 -8 -2 -13 2 -10 5 3 16 -9 26
-27 l18 -32 -22 25 -21 25 17 -40 c9 -22 18 -48 21 -58 5 -14 8 -15 22 -5 9 6
-9 -14 -39 -45 l-55 -57 1610 -1610 1609 -1609 63 60 62 60 31 -22 c16 -13 30
-24 30 -26 0 -6 -22 7 -41 24 -14 11 -18 11 -28 -1 -11 -13 8 -21 74 -31 6 -1
39 -15 75 -32 156 -73 307 -71 465 6 263 130 373 465 235 719 -16 30 -27 59
-23 65 3 5 2 7 -4 4 -5 -3 -20 7 -32 24 l-22 29 57 60 56 59 -1393 1397 c-767
768 -1492 1491 -1612 1607 l-218 210 -67 -64 c-36 -35 -59 -55 -50 -44 17 20
14 21 -114 69 -188 70 -309 141 -424 249 -143 135 -225 264 -271 427 -14 52
-18 60 -23 39 -4 -13 -5 32 -2 101 8 219 -35 385 -139 537 -29 42 -36 59 -21
49 5 -3 -1 14 -12 38 -12 26 -25 40 -30 35 -6 -5 -3 -16 6 -26 8 -10 19 -25
23 -33 8 -13 7 -13 -9 -1 -36 30 -38 48 -10 99 15 26 29 49 30 51 2 2 15 -4
29 -13 27 -18 66 -18 72 -1 7 21 -24 48 -55 48 -28 0 -30 2 -20 21 6 12 22 31
37 43 18 16 23 25 14 31 -17 11 -2 29 27 33 26 4 37 29 24 57 -7 17 -6 43 2
51 11 12 44 -36 44 -64 0 -60 49 -73 112 -30 49 33 61 56 48 91 -12 30 -26 23
-32 -16 -2 -21 -9 -25 -41 -28 -33 -3 -39 0 -44 19 -3 12 -16 41 -28 66 -13
24 -21 52 -18 62 4 16 8 14 34 -11 35 -36 82 -36 87 -2 4 25 -43 64 -77 64
-24 0 -25 4 -12 29 8 15 18 16 63 10 29 -4 77 -8 107 -8 71 -1 57 16 -49 60
-54 22 -80 38 -80 49 0 27 10 30 43 9 35 -21 77 -25 77 -8 0 13 -59 74 -78 80
-17 5 7 109 25 109 13 0 18 14 13 35 -5 22 -1 68 7 76 5 5 36 -2 70 -16 74
-30 189 -45 254 -33 26 5 78 25 116 44 60 32 73 35 113 29 81 -13 110 -10 133
14 l22 22 -62 -7 c-69 -7 -78 1 -47 44 20 28 44 28 89 -2 20 -14 42 -23 48
-20 7 3 24 23 39 44 18 26 48 50 87 69 68 35 114 85 136 150 10 27 20 106 25
191 9 158 32 252 63 258 25 5 22 -43 -8 -159 -26 -98 -32 -193 -14 -204 6 -4
13 -4 16 -1 14 14 93 348 99 416 5 61 4 78 -9 88 -18 15 -25 7 -42 -43 -5 -16
-16 -30 -24 -30 -24 0 -29 48 -14 136 8 46 17 152 20 234 6 168 -7 279 -38
319 -25 31 -24 71 1 96 22 22 29 24 48 12 21 -14 31 -68 43 -227 8 -117 8
-169 -2 -231 -15 -96 -15 -146 1 -185 29 -70 37 -28 46 236 8 240 0 298 -60
456 -54 142 -96 227 -128 256 -40 37 -167 86 -223 85 -59 0 -189 -31 -293 -68
-54 -20 -76 -33 -82 -50 -5 -13 -22 -30 -38 -38 -16 -8 -35 -22 -43 -32 -26
-32 52 -9 137 40 144 83 278 96 434 42 94 -32 131 -70 155 -161 31 -114 -3
-122 -74 -17 -96 141 -206 187 -348 143 -76 -22 -152 -72 -160 -102 -3 -12
-17 -22 -33 -26 -48 -9 -160 -143 -160 -190 0 -28 38 -10 81 38 28 32 50 49
57 45 24 -15 11 -47 -39 -93 -48 -46 -50 -50 -44 -89 4 -30 2 -44 -10 -54 -19
-16 -20 -40 -1 -40 17 0 55 37 144 138 46 53 70 72 88 72 14 0 26 6 28 13 15
47 15 48 35 36 108 -68 78 -395 -55 -587 -29 -42 -78 -114 -109 -159 -55 -82
-56 -83 -98 -83 -80 0 -163 60 -205 149 -18 38 -34 57 -55 65 -24 9 -28 15
-23 36 19 87 19 88 -3 102 -13 8 -21 23 -21 40 0 26 2 27 25 16 14 -6 28 -8
32 -4 4 4 6 33 5 65 -4 76 20 147 109 321 69 135 89 193 72 203 -23 15 -59
-36 -138 -192 -104 -208 -123 -263 -105 -297 9 -16 10 -28 4 -34 -7 -7 -16 23
-28 92 l-16 103 64 130 c106 212 200 317 357 400 220 115 517 94 644 -47 60
-66 111 -187 152 -358 42 -177 6 -806 -58 -999 -16 -46 -20 -76 -15 -110 17
-128 -136 -480 -179 -411 -4 6 7 32 24 59 37 58 39 71 6 71 -18 0 -32 -11 -51
-42 -15 -24 -63 -97 -106 -163 -43 -67 -78 -128 -78 -138 0 -11 8 -17 25 -17
14 0 25 -4 25 -8 0 -22 -89 -143 -147 -200 -72 -70 -169 -137 -213 -147 -16
-3 -34 -13 -40 -20 -16 -19 -3 -54 23 -65 21 -8 21 -8 -7 -19 -94 -37 -274
-67 -276 -46 -1 6 38 20 87 33 88 23 133 44 133 62 0 14 -26 12 -110 -10 -93
-24 -198 -27 -206 -5 -4 8 0 22 7 31 10 13 27 14 99 8 74 -5 89 -4 103 11 40
40 0 52 -130 38 -106 -11 -128 -24 -117 -67 7 -28 46 -73 79 -92 19 -11 18
-13 -13 -30 -69 -39 -71 -41 -27 -50 65 -12 375 30 459 62 37 14 47 86 14 101
-21 9 -20 11 23 40 56 39 250 239 317 327 28 37 56 83 63 103 10 31 9 39 -10
63 -29 40 -18 64 26 57 30 -5 39 -2 64 25 41 45 123 212 155 314 25 79 26 92
15 132 -15 55 -2 73 28 41 55 -60 50 -147 -18 -299 -40 -87 -50 -133 -32 -144
14 -9 51 39 73 95 52 137 62 242 29 326 -31 82 -34 117 -12 196 14 53 21 119
25 252 8 244 31 332 93 356 32 12 39 3 48 -61 7 -49 -11 -220 -24 -233 -8 -8
-23 58 -37 172 -12 92 -21 32 -28 -184 -3 -110 -11 -220 -16 -245 -21 -89 -23
-134 -6 -174 9 -22 21 -36 28 -33 12 4 13 19 7 102 -1 17 10 57 24 90 15 34
46 160 72 285 52 254 52 238 -6 474 -16 66 -29 133 -29 148 0 19 -10 35 -35
54 -28 21 -33 30 -25 44 12 22 -2 65 -42 134 -57 96 -43 144 21 71 54 -62 94
-164 139 -355 44 -186 53 -269 48 -456 -3 -173 -5 -182 -35 -256 -34 -83 -37
-108 -19 -126 10 -10 9 -18 -4 -40 -34 -58 -128 -404 -128 -471 0 -72 63 47
98 185 30 118 52 147 52 68 0 -79 -49 -260 -113 -419 -54 -134 -61 -158 -62
-225 -1 -66 -6 -84 -38 -145 -51 -96 -150 -226 -241 -314 -42 -40 -76 -74 -76
-76 0 -1 28 7 61 20 110 40 142 76 291 340 101 177 151 275 145 282 -3 2 -23
-15 -46 -39 -25 -27 -41 -37 -41 -27 0 16 60 173 104 274 30 66 45 63 47 -10
0 -22 4 -49 8 -60 8 -20 9 -18 72 153 30 79 39 85 32 19 -8 -80 3 -125 40
-158 31 -28 31 -30 17 -57 -12 -20 -24 -28 -52 -30 -30 -3 -46 -13 -77 -49
-89 -100 -197 -323 -189 -390 2 -18 2 -32 -1 -30 -54 29 -62 30 -77 16 -13
-14 -12 -18 6 -41 24 -31 25 -49 4 -90 -12 -24 -18 -28 -25 -17 -5 8 -9 26 -9
42 0 15 -4 27 -10 27 -5 0 -10 -10 -10 -22 0 -50 -48 -94 -192 -179 -59 -34
-79 -62 -59 -82 20 -20 12 -37 -19 -37 -20 0 -43 -11 -69 -35 -21 -19 -48 -35
-59 -35 -26 0 -67 34 -59 47 8 13 92 43 118 43 34 0 41 24 24 85 -9 31 -14 67
-11 79 3 13 31 45 63 72 134 115 283 316 283 384 0 47 -44 3 -113 -113 -53
-90 -139 -182 -284 -303 -116 -98 -142 -124 -107 -109 65 26 103 33 119 21 15
-11 14 -13 -5 -31 -12 -11 -61 -40 -108 -65 -47 -25 -88 -50 -90 -57 -2 -7 9
-15 25 -19 56 -12 64 -16 61 -27 -2 -7 -38 -30 -81 -51 -42 -22 -76 -40 -74
-42 1 -2 52 8 113 21 222 47 569 178 569 215 0 26 -35 23 -78 -7 -74 -49 -146
-69 -162 -44 -7 12 44 51 110 84 76 38 133 83 167 132 18 25 39 45 47 45 9 0
39 -14 66 -30 28 -16 58 -30 68 -30 22 0 32 23 19 46 -14 24 -1 64 83 254 112
255 191 515 183 600 l-3 35 -27 -28 c-15 -16 -34 -51 -44 -79 -9 -27 -18 -48
-20 -46 -1 2 10 85 25 183 16 99 34 266 40 370 12 191 19 251 28 241 3 -2 8
-125 12 -273 7 -243 16 -325 34 -296 25 40 35 417 17 606 -12 124 -22 145 -41
86 -12 -37 -19 -45 -44 -49 -23 -4 -31 -12 -36 -35 -10 -43 -38 -206 -50 -298
-13 -98 -60 -260 -103 -352 -68 -147 -92 -103 -31 57 61 157 98 329 109 510 7
108 10 115 56 138 52 27 75 85 67 176 -7 97 -22 100 -36 7 -20 -137 -38 -180
-64 -154 -17 17 -54 13 -61 -6 -4 -9 -11 -64 -16 -122 -13 -138 -20 -180 -31
-187 -5 -3 -9 -32 -9 -65 0 -89 -48 -172 -79 -135 -8 9 -5 35 9 92 27 108 68
357 79 480 11 126 0 235 -39 376 -53 192 -51 218 19 239 54 16 71 7 71 -35 0
-41 31 -66 56 -45 20 16 18 29 -12 85 -37 70 -79 119 -117 137 -40 19 -64 45
-111 120 -40 62 -53 67 -110 40 -33 -15 -38 -15 -83 2 -26 10 -96 46 -154 80
-160 94 -178 99 -317 92 -189 -9 -377 -58 -370 -96 5 -22 53 -17 193 17 149
36 238 36 324 -2 144 -62 241 -144 338 -284 42 -60 43 -80 4 -67 -11 3 -57 47
-103 98 -99 110 -112 122 -159 146 -107 58 -304 72 -439 31 -228 -68 -420
-236 -531 -463 -44 -92 -54 -87 -54 30 0 45 -4 85 -8 90 -5 4 11 13 34 18 38
9 46 17 68 60 38 72 154 187 226 221 59 28 78 55 57 76 -21 21 -185 -96 -318
-227 -60 -59 -92 -84 -103 -80 -10 3 -27 33 -41 73 -13 37 -25 72 -27 78 -5
15 174 173 204 180 17 5 34 0 53 -15 43 -31 79 -26 151 21 169 109 319 158
488 158 162 0 263 -33 381 -126 86 -67 160 -90 160 -49 0 41 -239 171 -394
215 -98 28 -193 24 -336 -15 -190 -52 -309 -104 -368 -161 -40 -39 -41 -39
-68 -19 -18 15 -17 17 26 56 43 38 259 152 349 184 23 8 91 20 151 26 93 10
124 9 211 -6 55 -9 103 -14 106 -11 15 15 -12 80 -47 118 -22 23 -40 43 -40
45 0 1 18 3 40 3 49 0 80 -29 106 -96 9 -24 20 -44 23 -44 4 0 11 19 17 43 7
32 14 42 29 42 15 0 21 -8 23 -30 5 -41 12 -48 110 -107 48 -29 113 -80 149
-117 l63 -65 29 17 c33 19 50 21 71 7 13 -9 13 -11 0 -20 -8 -6 -31 -15 -52
-20 -46 -13 -73 -3 -147 55 -83 65 -190 109 -179 73 3 -7 47 -45 99 -84 90
-68 162 -139 222 -218 27 -34 30 -36 46 -22 25 23 45 20 68 -12 47 -64 153
-301 153 -342 0 -26 -22 -26 -45 0 -28 31 -41 24 -51 -27 l-10 -48 -27 52
c-30 58 -45 72 -57 53 -17 -28 20 -189 55 -242 29 -44 69 -59 92 -35 16 16 61
169 70 239 6 41 -21 131 -73 245 -52 116 -87 159 -155 193 -62 32 -70 46 -41
73 36 33 76 22 125 -33 77 -85 134 -218 242 -560 46 -149 78 -216 95 -205 16
10 12 65 -10 150 -11 43 -18 80 -16 82 7 7 106 -256 130 -347 14 -52 39 -163
56 -247 33 -163 54 -227 73 -220 15 5 12 47 -14 194 -22 127 -25 218 -7 229
16 10 46 -31 54 -74 31 -181 74 -332 96 -332 23 0 -26 306 -63 389 -12 29 -19
66 -19 110 0 40 -5 75 -13 86 -13 17 -15 17 -30 -6 -12 -16 -17 -44 -17 -86 0
-46 -4 -63 -14 -63 -15 0 -64 103 -96 205 -43 133 -68 167 -141 188 l-44 13
-7 59 c-4 33 -20 99 -37 147 -72 205 -40 233 39 34 40 -102 81 -162 117 -171
54 -13 70 -41 98 -160 26 -111 46 -157 61 -143 51 52 -192 707 -329 888 -100
131 -371 372 -450 399 -22 8 -29 7 -34 -5 -8 -21 30 -58 102 -102 137 -82 266
-205 320 -304 16 -29 44 -71 63 -92 59 -66 198 -388 190 -441 -4 -26 -59 64
-119 195 -59 130 -104 206 -144 252 -19 21 -35 44 -35 51 -1 27 -71 105 -144
161 -42 33 -79 57 -81 54 -3 -3 27 -45 67 -95 161 -197 230 -305 208 -327 -8
-8 -13 -7 -20 4 -71 124 -371 430 -421 430 -10 0 -21 -9 -24 -20 -8 -25 -35
-25 -85 0 -47 24 -54 35 -55 79 0 33 -4 37 -85 80 -80 43 -83 45 -57 54 28 9
33 20 40 101 8 80 20 85 129 47 133 -46 282 -120 362 -180 70 -52 96 -60 140
-40 30 14 54 1 133 -74 29 -27 57 -46 62 -42 16 9 13 80 -4 121 -23 55 -113
138 -174 161 -30 11 -49 23 -43 27 27 17 -31 66 -78 66 -29 0 -25 -29 11 -78
17 -24 29 -46 26 -49 -4 -3 -57 24 -120 60 -62 37 -139 78 -171 93 -53 24 -59
25 -75 10 -24 -22 -40 -20 -68 6 -22 20 -24 21 -42 3 -14 -12 -44 -19 -98 -24
l-78 -6 38 -23 c41 -26 40 -42 -3 -42 -30 0 -47 -14 -30 -25 22 -14 7 -23 -52
-35 -75 -13 -408 -26 -435 -16 -17 7 -17 8 1 18 11 6 49 19 85 29 l66 19 -70
-5 c-38 -3 -117 -7 -175 -10 -153 -9 -165 -12 -216 -56 -26 -22 -92 -63 -148
-91 -124 -62 -336 -229 -336 -265 0 -20 28 -5 120 62 132 97 204 142 343 210
137 68 217 92 263 80 l29 -7 -24 -17 c-14 -9 -79 -37 -145 -62 -140 -53 -174
-69 -200 -98 -26 -28 -14 -51 26 -51 24 0 52 14 100 48 71 52 134 76 189 70
29 -3 34 -7 34 -28 0 -24 -2 -25 -65 -25 -63 0 -65 -1 -65 -25 0 -37 24 -36
155 5 155 48 267 56 359 23 35 -13 62 -27 60 -33 -3 -6 -47 -9 -114 -7 -128 4
-211 -11 -344 -65 -201 -80 -377 -191 -510 -320 -46 -46 -86 -83 -87 -83 -1 0
-5 12 -8 26 -6 21 2 36 39 82 87 106 228 216 318 248 59 21 87 41 87 64 0 32
-42 25 -127 -20 l-76 -41 -22 21 c-13 12 -35 20 -56 20 -66 0 -179 -73 -179
-116 0 -24 24 -16 98 32 71 45 117 55 117 24 0 -8 -29 -37 -65 -65 -36 -27
-89 -74 -119 -103 -30 -28 -55 -51 -55 -50 -27 57 -34 80 -29 97 3 14 0 23
-11 27 -10 4 -31 34 -48 67 -25 51 -28 62 -16 71 8 6 70 54 138 107 217 167
348 245 480 282 146 42 252 59 403 66 96 4 162 12 169 19 20 20 -18 25 -146
19 -256 -13 -472 -52 -590 -106 -59 -27 -246 -159 -275 -194 -7 -10 -41 -30
-75 -46 -33 -17 -80 -46 -104 -67 -24 -20 -44 -35 -46 -33 -9 13 -76 127 -76
132 0 2 14 10 31 17 34 14 49 4 49 -32 0 -33 45 -20 103 30 82 70 92 100 17
53 -25 -16 -56 -32 -69 -36 l-23 -7 18 32 c27 46 98 106 160 135 255 121 803
214 1029 175 42 -7 78 -10 81 -7 3 3 0 22 -7 42 -13 34 -12 38 6 51 41 30 66
15 94 -56 30 -76 58 -90 87 -44 17 25 21 26 73 21 41 -4 87 -21 169 -63 115
-57 150 -66 177 -44 38 32 22 41 -180 102 -101 31 -110 36 -110 58 0 24 2 25
61 22 46 -2 64 1 74 13 12 14 16 13 39 -9 14 -13 89 -68 166 -121 175 -122
261 -194 396 -332 168 -171 263 -294 349 -448 64 -116 99 -136 167 -93 34 20
35 23 31 67 -5 53 -49 155 -80 188 -39 42 11 75 54 36 27 -25 44 -4 30 36 -25
70 -198 291 -228 291 -19 0 9 -57 56 -115 50 -61 90 -127 90 -147 0 -34 -38
-19 -87 34 -26 29 -75 79 -107 112 -40 41 -60 69 -63 90 -1 16 -4 30 -5 31 -2
1 -84 66 -183 145 -174 139 -353 265 -362 256 -9 -9 9 -27 141 -140 262 -224
543 -534 674 -742 31 -50 45 -124 22 -124 -23 0 -75 65 -161 200 -51 80 -110
169 -132 199 -130 176 -613 556 -869 684 -85 42 -117 51 -138 37 -13 -9 -13
-11 0 -20 8 -5 42 -19 76 -30 34 -11 70 -27 80 -35 18 -13 17 -14 -14 -15 -19
0 -70 9 -115 21 -119 30 -276 59 -322 59 -27 0 -46 -6 -57 -19 -9 -11 -36 -22
-65 -26 -59 -8 -197 10 -249 31 -54 22 -84 20 -128 -10 -45 -30 -193 -79 -321
-107 -109 -23 -165 -25 -165 -5 0 20 50 41 170 71 114 28 296 85 363 114 92
39 87 84 -6 57 -78 -23 -103 -21 -123 9 -30 45 -80 37 -445 -78 -97 -31 -205
-61 -240 -68 -74 -14 -87 -22 -69 -44 29 -35 102 -19 390 81 131 46 178 58
227 59 59 0 63 1 63 23 0 19 5 23 22 20 33 -4 33 -31 0 -50 -15 -9 -136 -53
-269 -97 -328 -109 -536 -203 -551 -248 -5 -19 43 -16 58 3 11 12 25 14 66 8
51 -6 54 -5 63 19 14 35 126 89 197 95 88 7 65 -28 -28 -43 -26 -4 -49 -18
-75 -46 -21 -23 -69 -57 -108 -76 -38 -20 -89 -49 -113 -65 -23 -16 -47 -28
-51 -26 -5 2 -43 49 -84 105 -398 535 -976 961 -1612 1189 l-90 32 -9 46 c-11
55 -39 69 -83 41 l-27 -18 28 -23 c33 -29 32 -29 -76 0 -69 19 -116 42 -219
106 -128 80 -186 110 -210 110 -20 0 20 -39 106 -103 44 -33 71 -57 60 -54
-11 3 -38 9 -59 13 -22 4 -90 31 -150 60 -61 30 -117 54 -123 54 -24 0 -13
-15 39 -52 l50 -37 -58 6 c-33 2 -83 14 -111 26 -49 19 -85 17 -53 -3 34 -22
-158 -10 -262 16 -123 30 -261 43 -273 24 -11 -17 8 -31 62 -46 l48 -13 -42 0
c-23 -1 -107 -10 -188 -22 -166 -24 -160 -25 -171 50 -5 29 -3 46 6 51 45 28
340 35 552 14 52 -5 58 -4 79 20 28 32 57 33 155 4 41 -11 77 -18 81 -15 3 4
1 25 -6 47 -25 85 -208 159 -310 126 -19 -7 -23 -5 -18 7 9 24 -17 39 -65 35
-55 -4 -64 -30 -18 -56 18 -9 42 -25 54 -35 20 -17 17 -18 -99 -11 -66 4 -151
6 -190 6 -65 -2 -72 -4 -95 -32 -23 -28 -28 -30 -53 -21 -40 15 -45 14 -49
-11 -2 -15 -19 -31 -48 -47 -25 -13 -56 -31 -70 -40 l-25 -15 49 -11 49 -11
-37 -24 c-41 -29 -45 -40 -14 -40 39 0 -6 -35 -63 -48 -66 -15 -76 -15 -61 0
19 19 15 48 -7 48 -17 0 -57 -33 -96 -79 -5 -7 -73 -34 -150 -60 -77 -26 -149
-52 -160 -56 -54 -22 124 102 218 152 59 31 122 69 140 85 30 26 31 27 9 28
-54 1 -351 -179 -509 -307 -23 -19 -90 -59 -150 -89 l-108 -55 50 46 c233 212
503 394 678 454 53 18 97 36 97 40 0 4 -11 18 -25 31 -29 27 -31 42 -9 64 26
26 57 19 99 -24 50 -51 84 -52 97 -3 14 55 50 66 229 72 163 6 189 13 189 53
0 10 -6 21 -14 24 -8 3 -68 -4 -134 -15 -156 -27 -192 -27 -192 -2 0 23 12 32
60 46 21 6 39 20 45 33 8 18 16 22 35 18 26 -6 140 -25 330 -56 296 -48 650
-186 888 -345 114 -77 146 -82 186 -34 41 48 35 78 -28 141 -29 30 -74 65
-100 77 -25 13 -46 29 -46 36 0 23 29 38 60 31 47 -9 40 27 -12 65 -74 53
-259 139 -301 139 -19 0 -19 -1 -3 -18 9 -11 60 -42 114 -70 103 -54 139 -83
127 -102 -10 -17 -63 -5 -154 35 -42 19 -97 38 -121 44 -25 5 -46 14 -48 19
-11 35 -36 45 -207 83 -99 22 -231 49 -293 59 -124 22 -219 26 -190 10z m-415
-206 c29 -8 22 -19 -27 -44 -70 -36 -146 -19 -110 25 17 21 91 31 137 19z
m-260 -159 c7 -20 -24 -55 -50 -55 -40 0 -223 -103 -351 -197 -32 -24 -67 -43
-77 -43 -11 0 -95 -76 -205 -186 -103 -102 -211 -202 -240 -220 -30 -19 -54
-32 -54 -29 0 11 122 167 194 248 38 43 98 104 135 134 84 70 289 206 406 269
167 91 229 111 242 79z m603 -5 c0 -5 -22 -10 -50 -10 -27 0 -50 5 -50 10 0 6
23 10 50 10 28 0 50 -4 50 -10z m103 -557 c-7 -2 -19 -2 -25 0 -7 3 -2 5 12 5
14 0 19 -2 13 -5z m4777 -758 c57 -29 62 -40 22 -48 -62 -12 -142 23 -129 57
9 23 51 20 107 -9z m-272 -29 c16 -16 16 -18 -7 -37 -17 -14 -30 -17 -50 -11
-46 13 -252 6 -359 -12 -57 -10 -114 -15 -128 -12 -16 4 -92 -16 -232 -62
-331 -110 -502 -182 -502 -212 0 -5 -19 -22 -42 -36 -40 -25 -42 -26 -55 -8
-7 10 -12 23 -10 28 6 18 187 125 322 191 220 107 335 140 590 170 180 21 214
23 343 21 92 -2 116 -5 130 -20z m533 -272 c11 -10 17 -19 15 -21 -7 -8 -96
35 -96 46 0 14 58 -4 81 -25z m-496 -123 c29 -7 28 -7 -20 -19 -155 -37 -357
-59 -399 -43 -26 10 -27 13 -14 32 13 20 24 22 182 25 93 2 171 6 174 9 7 6
38 5 77 -4z m483 -675 c20 -41 31 -51 80 -73 31 -14 60 -30 64 -36 12 -19 9
-47 -4 -47 -35 0 -93 25 -115 48 -32 34 -73 115 -73 143 0 34 23 17 48 -35z
m-4061 -163 c-3 -10 -5 -2 -5 17 0 19 2 27 5 18 2 -10 2 -26 0 -35z m3387 23
c115 -51 236 -152 236 -197 0 -21 -10 -19 -43 9 -9 8 -20 13 -23 9 -3 -3 2
-61 11 -129 19 -136 22 -387 6 -458 -28 -125 -123 -368 -150 -385 -37 -22 -19
64 39 195 53 117 59 154 32 183 -32 34 -42 71 -42 153 0 101 -16 94 -57 -27
-18 -52 -52 -143 -75 -202 -31 -80 -38 -111 -30 -119 18 -18 42 9 78 90 19 39
39 72 45 72 52 0 -157 -461 -273 -601 -21 -26 -38 -50 -38 -53 0 -3 11 -6 25
-6 29 0 32 -8 8 -25 -10 -7 -14 -19 -10 -29 11 -29 43 -2 88 77 23 39 56 96
73 126 39 67 64 84 129 85 46 1 53 4 73 34 27 39 73 165 121 327 34 114 36
131 43 328 5 115 10 211 13 213 9 9 27 -138 27 -218 0 -172 -40 -407 -90 -534
-36 -89 -39 -124 -10 -124 32 0 34 -40 6 -124 -37 -108 -80 -193 -140 -272
-46 -62 -105 -114 -127 -114 -18 0 -8 44 16 76 33 43 33 74 1 74 -13 0 -29 -7
-36 -15 -8 -10 -30 -15 -62 -15 -39 0 -70 -10 -150 -50 -55 -27 -104 -47 -109
-45 -13 9 0 32 27 50 33 21 64 73 64 106 0 15 -9 37 -19 50 -19 23 -21 23 -48
9 -33 -18 -38 -53 -8 -58 11 -2 24 -8 28 -12 14 -12 -30 -50 -58 -50 -21 0
-25 5 -25 31 0 31 0 31 -37 23 -64 -15 -135 -9 -180 15 -37 18 -43 26 -43 53
l0 32 28 -26 c51 -47 74 -57 125 -51 31 4 47 10 47 20 0 7 41 33 93 58 95 45
134 75 123 94 -13 20 -155 -22 -218 -64 -21 -14 -44 -25 -52 -25 -7 0 -40 18
-73 39 -57 39 -59 41 -55 80 2 23 5 41 6 41 0 0 28 -9 61 -19 33 -10 83 -22
111 -26 63 -8 81 0 199 90 47 36 89 65 94 65 6 0 -1 -25 -15 -56 -14 -31 -23
-58 -21 -61 3 -2 18 8 35 22 40 34 95 143 90 181 -3 26 -6 29 -38 26 -52 -4
-75 5 -88 33 -19 41 -15 54 15 52 35 -3 69 46 122 174 72 172 93 260 95 389 1
115 -10 177 -38 215 -12 17 -29 20 -123 23 -59 2 -112 7 -117 12 -4 5 10 18
34 30 23 12 49 35 58 51 15 27 21 29 52 24 50 -8 140 -56 162 -85 24 -32 51
-162 45 -220 -2 -25 -14 -69 -27 -97 -13 -29 -21 -55 -18 -58 3 -3 18 0 32 7
38 17 46 1 46 -99 0 -89 11 -133 34 -133 23 0 29 59 23 214 -12 275 -73 424
-205 494 -34 18 -62 37 -62 43 0 17 59 9 114 -15z m-3607 -8 c-3 -8 -6 -5 -6
6 -1 11 2 17 5 13 3 -3 4 -12 1 -19z m770 -10 c-3 -8 -6 -5 -6 6 -1 11 2 17 5
13 3 -3 4 -12 1 -19z m-320 -35 c-3 -10 -5 -4 -5 12 0 17 2 24 5 18 2 -7 2
-21 0 -30z m210 -40 c-2 -16 -4 -5 -4 22 0 28 2 40 4 28 2 -13 2 -35 0 -50z
m-707 41 c0 -8 -19 -13 -24 -6 -3 5 1 9 9 9 8 0 15 -2 15 -3z m657 -31 c-3
-10 -5 -4 -5 12 0 17 2 24 5 18 2 -7 2 -21 0 -30z m3563 -15 c25 -41 57 -142
66 -209 6 -43 3 -55 -15 -80 -12 -16 -20 -33 -17 -38 3 -5 24 -11 47 -15 23
-4 38 -10 33 -15 -17 -15 -104 -42 -114 -36 -5 3 -10 39 -10 78 0 40 -7 117
-15 172 -25 171 -17 212 25 143z m-4323 -20 c-3 -7 -5 -2 -5 12 0 14 2 19 5
13 2 -7 2 -19 0 -25z m-120 -10 c-3 -8 -6 -5 -6 6 -1 11 2 17 5 13 3 -3 4 -12
1 -19z m480 -45 c-2 -16 -4 -5 -4 22 0 28 2 40 4 28 2 -13 2 -35 0 -50z m-562
39 c-3 -3 -11 0 -18 7 -9 10 -8 11 6 5 10 -3 15 -9 12 -12z m285 14 c0 -2 -8
-10 -17 -17 -16 -13 -17 -12 -4 4 13 16 21 21 21 13z m167 -38 c-3 -7 -5 -2
-5 12 0 14 2 19 5 13 2 -7 2 -19 0 -25z m1083 8 c307 -54 594 -152 867 -295
88 -47 92 -48 96 -27 3 12 5 6 6 -15 1 -41 19 -62 40 -49 23 13 83 -30 76 -55
-33 -121 -34 -134 -12 -150 44 -31 58 -14 72 82 6 47 8 50 23 37 9 -7 26 -20
37 -29 12 -9 14 -13 5 -10 -12 4 -16 -1 -15 -22 0 -16 5 -31 10 -35 6 -4 12
-118 16 -285 4 -185 10 -289 18 -310 7 -18 11 -38 8 -45 -2 -7 -11 19 -20 59
-13 56 -17 125 -17 317 0 144 -4 247 -9 251 -18 10 -35 -39 -36 -105 -1 -36
-8 -87 -15 -113 -19 -74 -8 -275 20 -352 31 -84 31 -224 0 -226 -13 0 -13 -1
0 -6 21 -8 70 -54 82 -78 5 -11 -4 -3 -21 17 -18 21 -44 43 -59 50 -51 25 -68
75 -78 226 -4 75 -6 184 -4 242 8 201 6 283 -8 288 -46 15 -65 -241 -38 -507
18 -167 15 -241 -9 -241 -18 0 -21 11 -45 190 -16 116 -21 195 -19 317 3 140
1 166 -13 180 -23 22 -44 11 -52 -27 -11 -58 -6 -247 10 -361 9 -70 12 -115 6
-122 -7 -8 0 -46 20 -111 33 -114 33 -138 -2 -146 -14 -3 -26 -14 -28 -24 -6
-28 29 -97 47 -94 8 2 31 36 51 75 19 40 40 71 45 70 6 -2 36 -54 68 -117 32
-63 49 -104 38 -90 -11 14 -21 30 -21 35 0 6 -4 4 -9 -4 -5 -8 -8 -21 -6 -30
3 -9 7 -27 10 -41 5 -21 4 -19 -10 6 -25 47 -63 80 -76 67 -17 -17 -2 -77 27
-104 22 -21 27 -22 47 -10 20 13 21 13 8 -3 -8 -10 -22 -15 -31 -13 -13 3 -16
-2 -14 -19 8 -80 -115 80 -202 261 -24 50 -53 128 -65 175 -25 99 -53 160 -74
160 -16 0 -20 -24 -16 -95 3 -49 41 -164 87 -263 18 -41 34 -86 34 -100 0 -25
0 -25 -21 -6 -11 10 -44 68 -74 129 -58 121 -79 154 -91 142 -15 -14 17 -101
109 -301 86 -188 94 -201 149 -249 32 -28 61 -62 65 -76 3 -14 15 -37 27 -50
l21 -25 -29 18 c-16 10 -26 13 -22 8 3 -6 2 -14 -4 -17 -6 -4 6 -18 27 -34 21
-15 45 -36 53 -47 8 -10 1 -7 -15 7 -56 50 -95 59 -95 23 0 -8 21 -38 47 -67
l47 -52 -49 47 -50 47 -35 -67 c-30 -59 -67 -123 -100 -172 -5 -8 -24 -37 -42
-65 -18 -27 -35 -52 -38 -55 -3 -3 -25 -34 -49 -70 -39 -56 -103 -139 -136
-176 -6 -6 -27 -33 -48 -60 -58 -77 -302 -313 -402 -390 -49 -38 -95 -73 -101
-79 -28 -25 -174 -126 -272 -188 -556 -351 -1311 -464 -2047 -307 -172 37
-157 36 -145 6 23 -61 7 -46 -21 19 -20 47 -29 83 -28 110 3 33 0 39 -14 37
-27 -5 -56 16 -83 61 -15 23 -52 67 -83 97 -31 30 -79 93 -107 140 -55 91 -87
126 -119 132 -13 2 -22 14 -26 37 -8 39 -34 76 -73 105 -22 17 -28 18 -36 7
-11 -19 -3 -40 30 -76 32 -35 44 -65 28 -65 -6 0 -74 63 -149 140 -123 124
-169 160 -169 131 0 -16 72 -116 155 -216 116 -141 199 -258 249 -355 47 -90
109 -240 103 -246 -2 -2 -15 23 -28 55 -12 33 -27 57 -31 54 -5 -2 -6 -14 -3
-26 3 -12 -20 28 -52 88 -81 151 -137 244 -173 285 l-31 35 7 -53 c5 -48 4
-54 -14 -59 -33 -8 -34 -29 -6 -119 15 -47 24 -87 22 -90 -3 -2 -11 16 -18 41
-7 25 -16 45 -21 45 -5 0 -5 8 -2 18 7 16 6 16 -11 0 -14 -14 -15 -22 -6 -39
7 -11 10 -23 7 -25 -6 -6 -47 91 -47 111 0 10 12 31 26 48 23 27 26 37 20 80
-5 48 -34 107 -76 156 -11 13 -23 21 -26 18 -3 -3 8 -48 25 -101 17 -53 31
-107 31 -121 0 -22 -3 -24 -28 -19 -47 9 -59 -16 -39 -79 9 -28 15 -53 12 -55
-2 -2 -13 25 -24 60 -11 34 -20 59 -21 53 0 -5 -5 -3 -11 5 -10 15 -10 10 8
-55 11 -40 -6 -8 -35 68 -42 110 -99 200 -189 303 -124 142 -133 154 -133 184
0 19 11 37 35 59 20 17 37 31 39 31 2 0 13 -16 25 -35 24 -41 65 -49 76 -14
15 47 -129 139 -224 144 -38 2 -67 12 -120 44 -38 22 -79 41 -90 41 -11 0 -30
-13 -42 -30 -28 -37 -66 -50 -138 -49 l-56 2 57 6 c31 3 60 10 65 15 4 5 -9 6
-30 2 -27 -5 -37 -4 -32 3 3 6 19 11 34 11 16 0 34 7 41 16 28 33 -39 62 -155
65 l-60 2 65 7 c36 4 52 8 35 9 -31 2 -79 19 -59 20 6 1 60 -8 120 -19 123
-22 198 -46 264 -84 56 -32 58 -32 72 -1 13 29 27 31 71 8 76 -39 287 -217
287 -242 0 -13 -6 -14 -48 -2 -40 12 -50 -3 -33 -50 6 -18 9 -34 7 -36 -2 -2
-27 12 -56 32 -28 19 -56 33 -60 30 -28 -17 83 -168 154 -210 97 -57 129 -8
91 135 -8 30 -15 69 -15 86 0 45 -97 152 -223 246 -85 64 -119 78 -192 78 -74
0 -88 13 -61 54 21 32 46 39 95 26 82 -22 190 -108 409 -326 194 -195 243
-236 259 -220 12 11 -23 73 -76 136 l-55 65 64 -55 c116 -97 223 -212 350
-374 126 -161 169 -204 189 -192 15 9 4 28 -78 141 -110 152 -131 186 -131
211 0 51 44 24 111 -68 64 -89 177 -208 197 -208 33 0 -117 219 -219 320 -31
31 -68 78 -82 106 -34 66 -52 82 -66 56 -12 -22 -1 -69 23 -104 18 -25 21 -58
7 -58 -14 0 -64 42 -168 142 -51 49 -105 93 -120 99 -16 6 -52 8 -85 4 l-57
-6 -20 38 c-11 21 -45 63 -76 93 -65 62 -135 147 -135 162 0 15 44 -16 127
-88 89 -78 141 -106 182 -98 54 11 76 -3 156 -100 79 -96 101 -114 118 -97 22
22 -62 123 -256 308 -130 125 -270 240 -365 301 -85 55 -247 117 -407 157
-202 50 -288 54 -272 11 9 -24 46 -35 160 -46 168 -16 305 -61 414 -135 36
-25 73 -45 83 -45 46 0 389 -294 368 -315 -6 -6 -138 85 -202 139 -73 63 -197
146 -216 146 -9 0 -41 17 -71 38 -66 47 -113 66 -204 82 -101 18 -124 10 -55
-20 126 -54 347 -170 375 -196 39 -36 18 -42 -37 -10 -105 61 -453 180 -510
174 -28 -2 -34 -7 -36 -30 -3 -22 -10 -29 -38 -34 -59 -11 -114 11 -114 47 0
12 -11 22 -32 29 l-33 10 33 -5 c30 -4 33 -3 27 15 -4 13 -2 20 7 21 7 0 -9 7
-37 14 -80 20 -16 17 91 -5 103 -21 124 -21 124 4 0 28 -44 40 -170 46 -69 4
-103 8 -75 10 l50 3 -50 6 -50 6 59 7 c61 7 94 27 81 48 -7 12 -87 10 -145 -4
-14 -4 -5 2 20 11 l45 18 -55 5 -55 6 70 9 c84 12 320 12 425 1 73 -8 76 -7
99 18 30 32 66 33 146 6 96 -33 110 -26 81 43 -32 79 -236 155 -308 116 -17
-9 -20 -9 -15 4 3 8 0 20 -6 26 -14 14 -104 15 -112 0 -9 -14 22 -47 68 -71
22 -11 37 -22 34 -24 -3 -3 -81 0 -173 6 -182 13 -221 8 -231 -30 -6 -21 -30
-24 -73 -9 -19 6 -14 7 20 4 34 -4 40 -3 23 4 -12 5 -24 19 -28 31 -6 18 -12
20 -33 15 -15 -4 -31 -12 -35 -18 -6 -8 -7 -8 -5 2 8 29 79 44 218 46 141 1
174 9 185 45 15 46 -8 49 -174 20 -148 -26 -163 -26 -159 1 3 23 14 31 62 45
16 5 34 18 40 29 6 11 12 22 13 24 1 2 17 -2 35 -8 18 -6 98 -21 178 -32 403
-56 758 -183 1044 -375 81 -54 119 -65 148 -41 26 21 48 60 48 85 0 31 -101
131 -164 161 -41 20 -45 25 -35 43 9 16 18 19 45 15 53 -9 57 18 9 60 -66 57
-314 168 -333 148 -11 -11 35 -43 123 -87 95 -48 148 -85 139 -100 -10 -16
-82 -2 -154 30 -36 17 -85 35 -110 42 -25 7 -56 25 -70 40 -22 25 -48 33 -240
74 -269 57 -444 83 -455 67 -7 -12 52 -31 231 -75 254 -63 507 -157 759 -281
150 -74 215 -121 215 -156 0 -36 -65 -9 -240 99 -172 106 -283 158 -435 200
-349 99 -859 169 -962 132 -26 -9 -27 -9 -9 5 11 8 31 16 45 16 18 1 20 3 8 6
-9 2 -14 9 -11 15 4 7 -8 8 -37 4 -40 -5 -42 -5 -19 6 17 9 75 12 178 12 156
-1 175 4 135 37 -12 11 -55 14 -177 13 -89 0 -143 2 -121 6 31 6 19 8 -55 10
l-95 4 120 6 c398 23 697 -2 1024 -86 126 -32 171 -40 171 -30 0 31 -50 66
-94 66 -33 0 -40 14 -16 35 25 22 81 15 149 -19 67 -35 114 -42 131 -21 12 15
12 19 -5 31 -10 8 -30 14 -43 14 -13 0 -92 29 -176 64 -235 100 -454 155 -624
157 l-87 0 60 24 c120 48 255 28 534 -80 204 -78 318 -105 309 -72 -5 17 -216
120 -313 152 -133 45 -465 126 -540 132 -69 6 -70 6 -53 -14 24 -27 23 -53 -2
-53 -12 0 -29 15 -44 39 -25 40 -61 60 -76 44 -5 -4 -10 -26 -12 -48 -3 -36
-6 -40 -31 -43 -36 -4 -57 13 -57 49 0 34 -24 44 -88 34 -62 -9 -110 -30 -147
-63 -17 -16 -23 -19 -15 -7 8 11 20 25 26 30 7 6 9 18 5 29 -7 17 -10 16 -47
-15 l-39 -33 43 45 c23 25 42 48 42 52 0 4 -10 12 -22 18 l-23 10 22 -5 c24
-4 29 9 14 33 -5 8 -17 11 -32 7 -13 -4 4 7 39 23 75 36 86 55 48 88 -33 28
-50 29 -68 5 -7 -10 -20 -22 -28 -27 -8 -4 -4 4 10 19 14 16 34 32 45 36 19 8
19 9 1 9 -18 1 -19 8 -12 123 l7 121 -28 30 c-15 16 15 -1 67 -39 113 -83 202
-140 330 -211 90 -50 93 -53 59 -53 -20 0 -90 9 -154 21 -65 11 -132 19 -149
17 -30 -3 -31 -5 -34 -54 -4 -72 7 -79 110 -66 46 6 153 14 239 17 146 5 159
4 215 -17 l59 -23 -240 -6 c-306 -8 -407 -20 -382 -45 4 -5 101 -8 215 -9 144
-1 214 -5 229 -13 14 -7 55 -12 103 -11 76 1 81 0 107 -28 24 -25 39 -31 93
-37 82 -9 114 -18 222 -68 49 -22 98 -38 110 -36 31 4 35 46 9 80 -16 20 -32
26 -78 31 -67 6 -191 33 -212 46 -8 5 -11 16 -8 24 4 12 19 11 99 -10 164 -41
283 -56 468 -57 191 -1 276 5 391 29 101 21 107 23 89 36 -13 10 -13 10 0 6 8
-3 23 -8 32 -12 10 -4 24 1 37 14 12 12 21 17 21 11 0 -9 137 35 153 49 4 4
-11 30 -34 57 -35 42 -34 41 13 -8 57 -61 89 -78 144 -78 48 0 70 14 83 51 10
30 12 31 53 24 84 -14 88 -19 38 -46 l-45 -24 104 -5 c88 -4 106 -8 115 -24
43 -72 79 -73 120 -3 37 65 40 83 17 106 -31 31 -41 26 -34 -15 5 -29 2 -40
-12 -50 -28 -21 -40 -17 -81 21 -44 42 -113 76 -219 110 -44 14 -64 23 -45 20
19 -2 42 0 50 5 12 8 11 10 -6 10 -11 0 -29 7 -40 16 -18 15 -18 15 3 5 12 -6
35 -11 51 -11 66 0 322 80 322 100 0 15 -23 17 -120 15 -52 -1 -77 -1 -55 2
22 2 45 9 50 16 6 7 19 17 29 22 10 6 18 14 17 18 0 4 -1 16 -1 26 0 12 -11
23 -27 29 -16 6 -21 11 -12 11 21 1 47 -20 51 -43 1 -11 9 -21 16 -24 9 -3 12
13 12 58 0 52 -4 64 -25 84 -22 20 -23 25 -11 42 14 19 15 18 38 -3 33 -31 58
-29 104 11 60 52 111 75 148 69 25 -4 39 1 64 22 26 22 35 25 47 15 18 -15 29
-8 44 27 6 16 25 34 41 41 16 7 32 22 35 33 4 11 9 19 11 16 6 -6 -37 -128
-55 -156 -13 -21 -20 -23 -67 -18 -58 6 -67 0 -78 -48 -5 -19 -38 -60 -92
-113 -110 -109 -112 -142 -4 -87 49 25 49 25 60 5 18 -33 42 -23 110 48 102
106 158 235 149 339 -3 23 -1 39 3 37 4 -3 19 3 33 12 14 9 27 15 29 13 2 -2
-3 -36 -9 -76 -23 -132 -96 -293 -160 -353 -40 -38 -28 -80 25 -80 23 -1 19
-7 -40 -61 -74 -68 -165 -132 -181 -127 -6 2 23 34 65 72 80 71 101 99 91 117
-8 13 -39 -7 -124 -79 -94 -80 -161 -102 -161 -53 0 19 31 38 101 60 63 20
102 73 64 87 -18 7 -101 -33 -167 -82 -35 -24 -48 -41 -48 -58 0 -32 48 -66
100 -73 22 -3 40 -8 40 -11 0 -3 -12 -23 -26 -44 -15 -21 -25 -41 -22 -44 29
-28 410 227 425 284 9 36 -9 76 -35 80 -12 2 -22 5 -22 6 0 2 11 24 25 49 35
62 70 166 115 342 22 83 39 140 40 127 l0 -22 43 21 c23 12 45 27 49 33 4 6 8
8 8 4 0 -4 12 -3 26 2 l26 10 -7 -52 c-4 -29 -13 -80 -21 -113 -18 -79 -18
-114 2 -122 30 -11 45 22 59 133 22 171 24 178 51 191 23 11 24 9 24 -22 0
-63 -21 -190 -42 -255 -11 -36 -50 -132 -85 -213 -36 -82 -63 -151 -60 -153 2
-2 24 16 49 41 48 47 78 58 78 26 0 -10 -29 -58 -65 -106 -81 -108 -82 -119
-15 -110 46 6 50 5 43 -12 -3 -10 -28 -46 -55 -80 -26 -35 -44 -63 -39 -63 37
0 394 334 473 441 49 69 53 84 18 84 -20 0 -31 -11 -52 -50 -31 -58 -80 -105
-108 -105 -20 0 -20 1 -4 31 8 17 36 61 61 98 54 78 77 129 87 191 4 24 12 47
18 51 5 4 39 4 74 1 86 -6 117 16 75 55 -21 20 -41 113 -41 195 l0 47 223 -4
c135 -2 255 -9 307 -19z m-593 -61 c0 -41 -3 -75 -7 -75 -6 0 -60 120 -60 134
0 3 15 7 33 9 17 2 32 5 32 5 0 1 1 -32 2 -73z m-1067 62 c0 -2 -17 -19 -37
-38 l-38 -34 34 38 c33 34 41 42 41 34z m507 -19 c-3 -8 -6 -5 -6 6 -1 11 2
17 5 13 3 -3 4 -12 1 -19z m-190 -10 c-3 -8 -6 -5 -6 6 -1 11 2 17 5 13 3 -3
4 -12 1 -19z m490 -11 c14 6 16 -4 10 -88 -9 -123 -38 -255 -81 -370 -19 -52
-34 -95 -32 -96 2 -2 28 23 59 55 40 42 59 73 70 110 13 43 30 199 40 367 2
35 5 40 28 43 25 3 26 1 33 -59 3 -34 12 -74 20 -89 12 -25 12 -27 -4 -23 -23
6 -60 -14 -60 -31 0 -8 16 -23 35 -35 31 -18 35 -25 35 -63 l-1 -43 -28 33
c-35 41 -42 40 -30 -2 13 -48 -10 -111 -77 -209 -59 -87 -65 -108 -33 -131 22
-15 22 -15 -15 -49 -23 -22 -36 -43 -36 -60 0 -34 -40 -62 -75 -53 -37 9 -31
28 30 85 61 56 61 52 3 122 -21 25 -38 54 -38 64 0 11 16 56 35 101 42 98 73
230 82 357 4 50 9 84 11 75 2 -11 9 -15 19 -11z m-644 -14 c-7 -2 -19 -2 -25
0 -7 3 -2 5 12 5 14 0 19 -2 13 -5z m2234 -25 c-3 -8 -6 -5 -6 6 -1 11 2 17 5
13 3 -3 4 -12 1 -19z m113 7 c19 -22 8 -25 -12 -3 -10 10 -14 18 -9 18 5 0 14
-7 21 -15z m-2380 1 c0 -2 -8 -10 -17 -17 -16 -13 -17 -12 -4 4 13 16 21 21
21 13z m37 -18 c-3 -8 -6 -5 -6 6 -1 11 2 17 5 13 3 -3 4 -12 1 -19z m100 0
c-3 -8 -6 -5 -6 6 -1 11 2 17 5 13 3 -3 4 -12 1 -19z m240 -10 c-3 -7 -5 -2
-5 12 0 14 2 19 5 13 2 -7 2 -19 0 -25z m60 0 c-3 -7 -5 -2 -5 12 0 14 2 19 5
13 2 -7 2 -19 0 -25z m-1049 15 c-10 -2 -26 -2 -35 0 -10 3 -2 5 17 5 19 0 27
-2 18 -5z m789 -25 c-3 -7 -5 -2 -5 12 0 14 2 19 5 13 2 -7 2 -19 0 -25z
m2036 17 c-3 -9 -8 -14 -10 -11 -3 3 -2 9 2 15 9 16 15 13 8 -4z m120 0 c-3
-9 -8 -14 -10 -11 -3 3 -2 9 2 15 9 16 15 13 8 -4z m-2656 -17 c-3 -8 -6 -5
-6 6 -1 11 2 17 5 13 3 -3 4 -12 1 -19z m113 18 c0 -2 -8 -10 -17 -17 -16 -13
-17 -12 -4 4 13 16 21 21 21 13z m165 -16 c-3 -5 -12 -10 -18 -10 -7 0 -6 4 3
10 19 12 23 12 15 0z m92 -32 c-3 -8 -6 -5 -6 6 -1 11 2 17 5 13 3 -3 4 -12 1
-19z m80 0 c-3 -8 -6 -5 -6 6 -1 11 2 17 5 13 3 -3 4 -12 1 -19z m2190 -25
c-3 -10 -5 -2 -5 17 0 19 2 27 5 18 2 -10 2 -26 0 -35z m-2567 24 c0 -2 -10
-12 -22 -23 l-23 -19 19 23 c18 21 26 27 26 19z m70 -1 c0 -2 -8 -10 -17 -17
-16 -13 -17 -12 -4 4 13 16 21 21 21 13z m166 -11 c-11 -8 -31 -15 -44 -15
-13 0 -33 -5 -44 -11 -17 -9 -18 -13 -7 -21 12 -8 11 -9 -1 -5 -20 5 -50 -30
-51 -62 -1 -18 -3 -21 -6 -8 -4 16 -10 12 -39 -21 -35 -41 -99 -84 -144 -96
-14 -4 4 8 39 25 38 20 76 49 95 73 70 89 122 136 152 136 16 0 36 5 44 10 23
15 27 11 6 -5z m181 -22 c-3 -10 -5 -4 -5 12 0 17 2 24 5 18 2 -7 2 -21 0 -30z
m-652 17 c-27 -12 -43 -12 -25 0 8 5 22 9 30 9 10 0 8 -3 -5 -9z m118 -18 c15
-17 15 -18 -6 -19 -15 -2 -18 0 -8 6 11 7 10 11 -5 20 -11 6 -14 11 -8 11 6 0
18 -8 27 -18z m484 -14 c-3 -7 -5 -2 -5 12 0 14 2 19 5 13 2 -7 2 -19 0 -25z
m-73 -76 c-1 -2 -24 8 -51 22 -26 14 -43 25 -38 25 6 0 21 -6 35 -14 37 -21
40 -19 42 28 l1 42 6 -50 c4 -27 6 -51 5 -53z m-461 81 c-7 -2 -21 -2 -30 0
-10 3 -4 5 12 5 17 0 24 -2 18 -5z m152 -53 c-86 -87 -119 -100 -241 -98 l-99
1 110 6 c126 7 147 16 230 100 27 28 52 51 54 51 3 0 -21 -27 -54 -60z m-282
43 c-7 -2 -19 -2 -25 0 -7 3 -2 5 12 5 14 0 19 -2 13 -5z m257 3 c0 -2 -8 -10
-17 -17 -16 -13 -17 -12 -4 4 13 16 21 21 21 13z m2597 -33 c-3 -10 -5 -4 -5
12 0 17 2 24 5 18 2 -7 2 -21 0 -30z m64 19 c-5 -10 -18 -25 -27 -33 -11 -9
-9 -2 6 19 26 35 36 42 21 14z m-2176 -10 c-3 -3 -11 0 -18 7 -9 10 -8 11 6 5
10 -3 15 -9 12 -12z m-258 2 c-3 -3 -12 -4 -19 -1 -8 3 -5 6 6 6 11 1 17 -2
13 -5z m170 -16 c-3 -8 -6 -5 -6 6 -1 11 2 17 5 13 3 -3 4 -12 1 -19z m-650 6
c-3 -3 -12 -4 -19 -1 -8 3 -5 6 6 6 11 1 17 -2 13 -5z m2957 -28 c-3 -15 -8
-25 -11 -23 -2 3 -1 17 3 31 3 15 8 25 11 23 2 -3 1 -17 -3 -31z m-2773 4
c-13 -11 -28 -20 -35 -20 -6 0 3 9 19 19 39 25 46 25 16 1z m456 -32 c-3 -7
-5 -2 -5 12 0 14 2 19 5 13 2 -7 2 -19 0 -25z m2347 7 c-9 -14 -18 -25 -21
-25 -5 0 5 18 20 38 17 22 18 13 1 -13z m-2481 -34 c-6 -23 -60 -77 -69 -68
-10 10 4 51 27 81 16 20 24 24 34 16 7 -6 11 -19 8 -29z m-656 23 c-3 -3 -12
-4 -19 -1 -8 3 -5 6 6 6 11 1 17 -2 13 -5z m246 -1 c-7 -2 -21 -2 -30 0 -10 3
-4 5 12 5 17 0 24 -2 18 -5z m-100 -10 c-7 -2 -21 -2 -30 0 -10 3 -4 5 12 5
17 0 24 -2 18 -5z m357 -43 c-25 -35 -117 -100 -140 -99 -8 0 -4 5 9 10 40 16
116 76 131 103 7 14 15 24 18 22 2 -3 -6 -19 -18 -36z m-442 13 c-10 -2 -26
-2 -35 0 -10 3 -2 5 17 5 19 0 27 -2 18 -5z m-373 -53 c10 -11 16 -20 13 -20
-3 0 -13 9 -23 20 -10 11 -16 20 -13 20 3 0 13 -9 23 -20z m292 -26 c-3 -3
-12 -4 -19 -1 -8 3 -5 6 6 6 11 1 17 -2 13 -5z m313 -6 c-14 -6 -79 -12 -145
-13 l-120 -3 122 7 c68 4 126 11 130 14 3 4 13 7 22 6 10 0 6 -5 -9 -11z
m-885 -16 c-3 -3 -11 0 -18 7 -9 10 -8 11 6 5 10 -3 15 -9 12 -12z m612 12
c-3 -3 -12 -4 -19 -1 -8 3 -5 6 6 6 11 1 17 -2 13 -5z m-99 -21 c-10 -2 -28
-2 -40 0 -13 2 -5 4 17 4 22 1 32 -1 23 -4z m415 -10 c-7 -2 -19 -2 -25 0 -7
3 -2 5 12 5 14 0 19 -2 13 -5z m-338 -13 c3 -6 -1 -7 -9 -4 -18 7 -21 14 -7
14 6 0 13 -4 16 -10z m269 -1 c-17 -5 -36 -19 -42 -31 -6 -13 -11 -17 -11 -10
-1 20 37 52 62 51 18 -1 16 -3 -9 -10z m-139 -9 c3 -6 -1 -7 -9 -4 -18 7 -21
14 -7 14 6 0 13 -4 16 -10z m-302 -21 c-6 -6 -19 -9 -29 -6 -16 4 -15 5 4 6
12 0 22 6 22 13 0 6 3 8 7 5 4 -4 2 -12 -4 -18z m-208 -9 c10 -11 16 -20 13
-20 -3 0 -13 9 -23 20 -10 11 -16 20 -13 20 3 0 13 -9 23 -20z m555 -25 c0
-27 -28 -38 -60 -25 -17 7 -33 17 -36 21 -3 5 11 2 30 -8 28 -13 39 -14 48 -5
10 10 10 17 -1 35 -13 20 -13 21 2 8 10 -7 17 -19 17 -26z m-257 -5 c-3 -11
-7 -20 -9 -20 -2 0 -4 9 -4 20 0 11 4 20 9 20 5 0 7 -9 4 -20z m84 14 c-3 -3
-12 -4 -19 -1 -8 3 -5 6 6 6 11 1 17 -2 13 -5z m699 -74 c-39 -52 -46 -58 -46
-38 0 16 15 40 42 66 23 23 43 40 46 38 2 -2 -17 -32 -42 -66z m-1025 33 c13
-16 12 -17 -3 -4 -10 7 -18 15 -18 17 0 8 8 3 21 -13z m282 0 c-7 -2 -19 -2
-25 0 -7 3 -2 5 12 5 14 0 19 -2 13 -5z m278 -37 c5 -6 9 -14 9 -20 0 -5 -7
-1 -15 10 -8 10 -14 28 -14 39 l1 20 5 -20 c3 -11 9 -24 14 -29z m-381 -11 c0
-7 -7 -19 -17 -26 -15 -13 -15 -12 -3 8 13 19 11 24 -11 43 l-24 21 28 -17
c15 -9 27 -22 27 -29z m203 38 c-13 -2 -35 -2 -50 0 -16 2 -5 4 22 4 28 0 40
-2 28 -4z m-317 -21 c-16 -2 -32 0 -37 5 -5 5 7 7 29 4 34 -5 35 -6 8 -9z
m402 11 c-10 -2 -26 -2 -35 0 -10 3 -2 5 17 5 19 0 27 -2 18 -5z m2 -43 c-14
-11 -34 -20 -45 -20 -13 1 -6 7 20 19 51 25 56 25 25 1z m-154 -10 c16 -6 36
-20 43 -33 14 -22 13 -22 -12 1 -15 14 -43 26 -69 29 l-43 6 23 -25 c33 -36
27 -41 -8 -6 -16 16 -30 31 -30 34 0 8 67 4 96 -6z m-581 -18 c-3 -3 -11 0
-18 7 -9 10 -8 11 6 5 10 -3 15 -9 12 -12z m860 -16 c14 -9 25 -21 25 -26 0
-6 -9 -1 -19 9 -11 11 -37 23 -58 26 -56 10 -65 16 -15 11 23 -2 54 -11 67
-20z m-714 -23 c13 -16 12 -17 -3 -4 -10 7 -18 15 -18 17 0 8 8 3 21 -13z
m259 -3 c8 -5 11 -10 5 -10 -5 0 -17 5 -25 10 -8 5 -10 10 -5 10 6 0 17 -5 25
-10z m3670 -150 c-4 -104 -8 -134 -10 -90 -2 36 -4 76 -3 90 1 39 14 162 17
158 2 -2 0 -73 -4 -158z m-3375 140 c13 -6 15 -9 5 -9 -8 0 -22 4 -30 9 -18
12 -2 12 25 0z m-232 -7 c-7 -2 -21 -2 -30 0 -10 3 -4 5 12 5 17 0 24 -2 18
-5z m3655 -13 c-7 -10 -14 -17 -17 -15 -4 4 18 35 25 35 2 0 -1 -9 -8 -20z
m-3911 4 c-3 -3 -12 -4 -19 -1 -8 3 -5 6 6 6 11 1 17 -2 13 -5z m141 -1 c-10
-2 -26 -2 -35 0 -10 3 -2 5 17 5 19 0 27 -2 18 -5z m491 -9 c8 -7 -74 -2 -99
6 -16 5 -2 6 35 3 33 -3 62 -7 64 -9z m3810 -120 c38 -35 38 -47 6 -86 -32
-38 -32 -54 4 -66 33 -12 95 -2 188 29 34 11 73 19 85 17 21 -3 21 -5 -17 -46
-45 -50 -128 -102 -164 -102 -14 0 -63 14 -109 32 -74 27 -83 34 -78 52 3 12
6 38 6 58 0 29 3 36 15 32 22 -9 19 31 -5 85 -11 24 -20 64 -20 90 l1 46 29
-56 c16 -31 43 -69 59 -85z m-4176 86 c26 -16 47 -32 47 -35 0 -4 -13 3 -29
15 -16 11 -45 27 -63 35 -18 8 -26 14 -17 15 8 0 36 -13 62 -30z m-182 -7 c13
-16 12 -17 -3 -4 -10 7 -18 15 -18 17 0 8 8 3 21 -13z m432 10 c-13 -2 -35 -2
-50 0 -16 2 -5 4 22 4 28 0 40 -2 28 -4z m-113 -16 c-26 -9 -35 -18 -34 -34 0
-12 -3 -20 -8 -17 -26 16 17 65 57 63 13 0 8 -4 -15 -12z m3547 -29 c-3 -7 -5
-2 -5 12 0 14 2 19 5 13 2 -7 2 -19 0 -25z m-3897 -14 c0 -2 -9 0 -20 6 -11 6
-20 13 -20 16 0 2 9 0 20 -6 11 -6 20 -13 20 -16z m145 -4 c13 -6 15 -9 5 -9
-8 0 -22 4 -30 9 -18 12 -2 12 25 0z m-629 -32 l29 -33 -32 29 c-31 28 -38 36
-30 36 2 0 16 -15 33 -32z m169 12 c10 -11 16 -20 13 -20 -3 0 -13 9 -23 20
-10 11 -16 20 -13 20 3 0 13 -9 23 -20z m255 -16 c0 -2 -9 0 -20 6 -11 6 -20
13 -20 16 0 2 9 0 20 -6 11 -6 20 -13 20 -16z m3937 4 c-3 -8 -6 -5 -6 6 -1
11 2 17 5 13 3 -3 4 -12 1 -19z m-3634 5 c-7 -2 -21 -2 -30 0 -10 3 -4 5 12 5
17 0 24 -2 18 -5z m-105 -10 c-10 -2 -26 -2 -35 0 -10 3 -2 5 17 5 19 0 27 -2
18 -5z m-115 -52 c7 -8 -7 -2 -30 14 -24 15 -43 30 -43 32 0 7 61 -31 73 -46z
m180 42 c-7 -2 -19 -2 -25 0 -7 3 -2 5 12 5 14 0 19 -2 13 -5z m-458 -23 c10
-11 16 -20 13 -20 -3 0 -13 9 -23 20 -10 11 -16 20 -13 20 3 0 13 -9 23 -20z
m533 13 c-10 -2 -28 -2 -40 0 -13 2 -5 4 17 4 22 1 32 -1 23 -4z m-328 -29 c0
-2 -9 0 -20 6 -11 6 -20 13 -20 16 0 2 9 0 20 -6 11 -6 20 -13 20 -16z m3937
-31 c-3 -10 -5 -4 -5 12 0 17 2 24 5 18 2 -7 2 -21 0 -30z m-4077 1 c0 -2 -9
0 -20 6 -11 6 -20 13 -20 16 0 2 9 0 20 -6 11 -6 20 -13 20 -16z m80 -69 c0
-3 -36 13 -80 35 -44 22 -80 42 -80 45 0 3 36 -13 80 -35 44 -22 80 -42 80
-45z m337 60 c51 -31 60 -60 14 -44 -17 6 -36 18 -43 27 -12 15 -11 16 4 4 10
-8 23 -12 30 -10 8 3 -1 12 -19 21 -38 20 -47 21 -37 5 5 -9 2 -9 -9 1 -39 32
3 29 60 -4z m-170 -69 c-11 -28 -60 -19 -93 17 l-29 32 31 -27 c31 -28 84 -38
84 -16 0 7 -15 28 -32 48 l-33 35 39 -37 c26 -24 37 -42 33 -52z m-2197 54
c-8 -5 -19 -10 -25 -10 -5 0 -3 5 5 10 8 5 20 10 25 10 6 0 3 -5 -5 -10z
m2033 3 c-7 -2 -19 -2 -25 0 -7 3 -2 5 12 5 14 0 19 -2 13 -5z m-154 -57 c-3
-3 -11 5 -18 17 -13 21 -12 21 5 5 10 -10 16 -20 13 -22z m4078 -33 c-3 -10
-5 -2 -5 17 0 19 2 27 5 18 2 -10 2 -26 0 -35z m-4030 1 c-3 -3 -12 -4 -19 -1
-8 3 -5 6 6 6 11 1 17 -2 13 -5z m57 -3 c4 -5 -3 -7 -14 -4 -23 6 -26 13 -6
13 8 0 17 -4 20 -9z m4053 -23 c-3 -8 -6 -5 -6 6 -1 11 2 17 5 13 3 -3 4 -12
1 -19z m-70 -20 c-3 -8 -6 -5 -6 6 -1 11 2 17 5 13 3 -3 4 -12 1 -19z m-5940
6 c-3 -3 -12 -4 -19 -1 -8 3 -5 6 6 6 11 1 17 -2 13 -5z m5950 -56 c-3 -7 -5
-2 -5 12 0 14 2 19 5 13 2 -7 2 -19 0 -25z m-5837 -91 c-14 -7 -41 -10 -60 -8
l-35 5 45 7 c72 10 76 9 50 -4z m5790 -21 c-4 -4 -16 -4 -26 2 -16 9 -14 10 8
9 15 -1 23 -6 18 -11z m-5631 -30 l156 1 -79 -17 c-82 -19 -161 -25 -261 -21
-52 2 -57 4 -37 13 12 6 22 18 21 27 -3 31 1 34 22 15 19 -17 37 -19 178 -18z
m5641 -56 c-6 -11 -13 -20 -16 -20 -2 0 0 9 6 20 6 11 13 20 16 20 2 0 0 -9
-6 -20z m3 -70 c8 0 20 -7 28 -16 10 -12 5 -11 -22 3 -18 11 -35 28 -36 39 -2
15 -1 14 7 -3 5 -13 16 -23 23 -23z m-4988 -4 c106 -26 195 -60 195 -75 0 -3
-7 -17 -16 -29 -17 -25 -56 -29 -73 -8 -38 46 -367 85 -726 86 -93 1 -188 5
-210 9 l-40 7 40 13 c68 20 230 29 480 27 223 -2 248 -4 350 -30z m5495 -61
c29 -21 41 -25 77 -19 65 10 133 -39 133 -95 0 -19 -3 -18 -45 11 -33 23 -57
32 -96 34 -28 2 -66 9 -85 16 -29 10 -34 17 -34 45 0 40 6 41 50 8z m-546 -60
c33 -43 34 -45 6 -15 l-32 35 5 -39 c9 -55 -2 -38 -18 29 -7 31 -10 53 -6 48
4 -4 25 -30 45 -58z m1046 6 c0 -41 -103 -106 -239 -151 -115 -39 -142 -36
-253 22 -70 36 -78 43 -78 69 0 16 2 29 4 29 2 0 34 -14 72 -31 43 -20 92 -33
130 -37 63 -5 74 -1 289 92 72 31 75 31 75 7z m-7353 -67 c-13 -11 -176 -87
-225 -104 -134 -49 -69 18 102 106 l110 56 8 -28 c4 -15 6 -29 5 -30z m476 49
c-7 -2 -21 -2 -30 0 -10 3 -4 5 12 5 17 0 24 -2 18 -5z m5837 -88 c0 -5 -5 -3
-10 5 -5 8 -10 20 -10 25 0 6 5 3 10 -5 5 -8 10 -19 10 -25z m-5830 21 c0 -2
-7 -7 -16 -10 -8 -3 -12 -2 -9 4 6 10 25 14 25 6z m-467 -48 c4 -12 5 -23 4
-23 -1 -1 -54 -31 -117 -67 -144 -82 -175 -98 -195 -98 -49 0 36 83 107 104
29 8 82 36 118 60 36 25 68 45 71 45 4 1 9 -9 12 -21z m576 -30 c39 7 81 12
94 12 21 -1 21 -1 3 -12 -23 -13 -154 -48 -176 -47 -8 1 5 7 30 14 l45 13 -35
1 c-35 1 -60 15 -60 35 0 5 6 1 14 -9 13 -18 19 -19 85 -7z m5436 -40 c62 -73
166 -240 165 -265 -1 -4 -12 14 -26 41 -17 32 -29 45 -36 38 -6 -6 -4 -20 7
-42 9 -17 14 -34 11 -38 -3 -3 -6 0 -6 6 0 6 -31 57 -69 114 -37 57 -76 117
-85 135 -33 66 -13 71 39 11z m2405 -3 c0 -8 -4 -15 -9 -15 -11 0 -25 -43 -41
-123 -9 -45 -21 -69 -54 -106 -23 -26 -50 -68 -60 -94 -29 -78 -40 -59 -33 58
3 58 9 110 12 116 5 7 16 2 32 -12 19 -18 28 -21 41 -13 13 9 17 26 17 82 0
61 3 74 24 96 27 29 71 35 71 11z m-2163 -51 c-3 -3 -12 -4 -19 -1 -8 3 -5 6
6 6 11 1 17 -2 13 -5z m-5692 -14 c-3 -5 -16 -15 -28 -20 -21 -10 -21 -10 -3
4 17 14 15 15 -30 19 l-49 3 58 2 c36 1 56 -2 52 -8z m5604 -30 c11 -22 19
-40 17 -40 -6 0 -46 65 -46 74 0 14 9 4 29 -34z m55 14 c3 -8 2 -12 -4 -9 -6
3 -10 10 -10 16 0 14 7 11 14 -7z m-9 -84 c10 -11 16 -20 13 -20 -3 0 -13 9
-23 20 -10 11 -16 20 -13 20 3 0 13 -9 23 -20z m-5330 -50 c-3 -5 -21 -10 -40
-10 -19 0 -37 5 -40 10 -4 6 12 10 40 10 28 0 44 -4 40 -10z m-285 -14 c0 -2
-8 -10 -17 -17 -16 -13 -17 -12 -4 4 13 16 21 21 21 13z m5547 -78 c-3 -7 -5
-2 -5 12 0 14 2 19 5 13 2 -7 2 -19 0 -25z m-5554 -5 c-7 -2 -14 -17 -14 -31
-1 -18 -3 -21 -6 -9 -6 24 3 47 19 46 10 0 10 -2 1 -6z m94 -129 c-3 -3 -12
-4 -19 -1 -8 3 -5 6 6 6 11 1 17 -2 13 -5z m-469 -139 c7 -14 12 -27 12 -29 0
-7 -141 -67 -151 -64 -11 4 105 118 120 118 4 0 13 -11 19 -25z m502 0 c19
-22 8 -25 -12 -3 -10 10 -14 18 -9 18 5 0 14 -7 21 -15z m51 -53 c-7 -2 -18 1
-23 6 -8 8 -4 9 13 5 13 -4 18 -8 10 -11z m144 -11 c59 -6 113 -19 158 -37
l67 -28 34 37 c35 38 56 47 56 24 0 -20 -51 -65 -82 -72 -15 -4 -58 0 -97 9
-79 18 -141 20 -189 7 -20 -6 -30 -6 -27 0 4 5 13 9 21 9 8 0 14 9 14 19 0 15
-10 22 -42 29 -56 13 -25 14 87 3z m-651 -37 c11 -28 7 -33 -54 -64 -73 -37
-103 -39 -98 -7 2 16 20 30 68 54 77 38 76 37 84 17z m104 -195 c12 -19 10
-24 -30 -57 -149 -125 -279 -275 -298 -343 -13 -48 -32 -64 -59 -50 -25 14
-20 30 38 125 76 126 201 270 278 320 47 31 55 31 71 5z m570 4 c-10 -2 -26
-2 -35 0 -10 3 -2 5 17 5 19 0 27 -2 18 -5z m255 -34 c12 -6 32 -21 44 -32 18
-16 35 -19 91 -18 52 1 73 -3 82 -14 18 -22 3 -34 -50 -41 -55 -7 -105 12
-160 62 -52 47 -55 68 -7 43z m-27 -88 c78 -35 211 -171 346 -351 77 -104 95
-136 61 -109 -16 13 -17 12 -4 -3 7 -10 17 -16 21 -13 9 6 55 -72 65 -108 3
-13 -2 -8 -15 13 l-20 35 6 -30 c4 -21 -4 -11 -25 30 -17 33 -72 107 -122 165
-50 58 -98 120 -107 138 -10 20 -26 35 -42 38 -44 9 -71 24 -65 34 8 13 -50
70 -120 120 -78 56 -66 81 21 41z m-61 -77 c70 -39 81 -55 38 -53 l-28 1 25 8
c14 4 21 9 15 9 -13 2 -132 70 -123 71 4 0 37 -16 73 -36z m-547 -105 c12 -19
8 -25 -50 -77 -105 -93 -158 -155 -158 -182 0 -14 -9 -40 -20 -58 -11 -18 -20
-39 -20 -48 0 -30 37 5 99 95 61 89 116 143 178 175 31 16 33 15 44 -6 8 -15
9 -23 1 -26 -63 -21 -172 -159 -172 -217 0 -20 -6 -35 -15 -39 -27 -10 -56
-96 -58 -171 -2 -64 0 -70 18 -70 13 0 22 10 27 33 4 17 12 47 16 65 5 22 14
32 27 32 28 0 30 -35 6 -91 -26 -59 -26 -86 -1 -109 16 -14 19 -26 14 -52 -5
-25 -3 -33 8 -33 20 0 45 58 63 146 18 88 42 141 67 148 16 4 19 10 13 35 -6
28 -4 31 19 31 40 0 101 -63 141 -144 73 -149 90 -298 56 -490 -12 -65 -21
-132 -21 -148 0 -64 -36 -89 -128 -89 -64 0 -119 16 -152 46 -39 35 -68 47
-108 43 l-37 -3 3 46 c4 56 -17 85 -49 69 -28 -16 -24 -66 11 -137 51 -102
153 -200 197 -191 19 4 8 16 -96 110 -40 37 -53 68 -29 68 7 0 37 -18 68 -39
31 -22 71 -43 90 -49 l35 -9 -3 -56 c-2 -43 1 -59 11 -63 28 -10 84 24 165
100 45 42 86 76 92 76 28 0 -40 -167 -85 -210 -28 -26 -88 -38 -210 -39 l-70
-1 -60 63 c-75 78 -188 246 -209 310 -9 26 -25 65 -35 85 -38 74 -54 185 -54
372 0 272 39 404 167 562 40 49 167 157 186 158 3 0 11 -9 18 -21z m721 -55
c47 -42 111 -123 111 -139 0 -4 -20 19 -45 52 -47 61 -122 129 -132 119 -3 -3
10 -31 31 -61 20 -30 34 -55 31 -55 -12 0 -76 110 -70 119 3 6 1 11 -4 11 -6
0 -11 5 -11 10 0 16 30 -3 89 -56z m-561 -155 l24 -29 -27 10 c-14 5 -53 10
-86 10 -32 0 -59 4 -59 8 0 15 43 31 85 31 32 0 44 -6 63 -30z m679 -36 c-3
-10 -5 -4 -5 12 0 17 2 24 5 18 2 -7 2 -21 0 -30z m93 -26 c0 -2 -12 -14 -27
-28 -14 -13 -23 -19 -20 -12 4 6 2 14 -3 16 -6 3 -5 4 2 3 7 -1 19 3 26 11 13
12 22 17 22 10z m727 -139 c122 -151 276 -365 309 -430 33 -64 23 -61 -14 5
-16 28 -39 63 -50 77 l-21 25 20 -59 c10 -33 17 -61 15 -63 -2 -3 -10 13 -16
34 -24 74 -59 133 -80 133 -25 0 -71 56 -174 216 -143 221 -138 246 11 62z
m-802 54 c-3 -3 -11 0 -18 7 -9 10 -8 11 6 5 10 -3 15 -9 12 -12z m111 -14
l19 -23 -25 20 c-14 11 -27 21 -29 22 -2 2 0 3 6 3 5 0 18 -10 29 -22z m121
-100 c-3 -8 -6 -5 -6 6 -1 11 2 17 5 13 3 -3 4 -12 1 -19z m397 -96 c31 -61
40 -89 31 -89 -8 0 -22 19 -31 41 -44 111 -53 136 -49 136 3 0 25 -40 49 -88z
m-214 -17 c0 -5 -5 -3 -10 5 -5 8 -10 20 -10 25 0 6 5 3 10 -5 5 -8 10 -19 10
-25z m410 -200 c0 -5 -5 -3 -10 5 -5 8 -10 20 -10 25 0 6 5 3 10 -5 5 -8 10
-19 10 -25z m164 -35 c5 -21 4 -21 -8 4 -9 20 -15 25 -19 15 -3 -8 -6 2 -6 21
0 35 0 35 13 10 7 -14 16 -36 20 -50z m4441 -140 c104 -104 188 -190 185 -190
-3 0 -91 86 -195 190 -104 105 -188 190 -185 190 3 0 91 -85 195 -190z m-5423
107 c24 -19 28 -60 7 -65 -11 -2 -23 12 -38 42 -11 25 -21 48 -21 51 0 6 27
-8 52 -28z m965 -9 c-3 -7 -5 -2 -5 12 0 14 2 19 5 13 2 -7 2 -19 0 -25z m184
-55 c13 -16 12 -17 -3 -4 -10 7 -18 15 -18 17 0 8 8 3 21 -13z m4582 -280 c-7
-2 -19 -2 -25 0 -7 3 -2 5 12 5 14 0 19 -2 13 -5z m-5083 -13 c0 -5 -2 -10 -4
-10 -3 0 -8 5 -11 10 -3 6 -1 10 4 10 6 0 11 -4 11 -10z m5184 -11 c31 -11 58
-25 62 -31 4 -5 -4 -4 -17 3 -13 7 -49 21 -79 30 -30 10 -47 18 -38 18 10 1
42 -8 72 -20z m-1387 -5 c-3 -3 -12 -4 -19 -1 -8 3 -5 6 6 6 11 1 17 -2 13 -5z
m413 -279 c113 -113 203 -205 200 -205 -3 0 -97 92 -210 205 -113 113 -203
205 -200 205 3 0 97 -92 210 -205z m-3946 35 c-4 -17 3 -63 16 -110 20 -77 20
-84 6 -128 -9 -25 -16 -74 -16 -109 0 -93 -14 -78 -76 84 l-23 62 42 -2 c37
-2 42 1 45 21 2 13 -7 35 -22 53 -42 50 -33 159 14 159 16 0 19 -5 14 -30z
m4297 -577 c13 -16 12 -17 -3 -4 -10 7 -18 15 -18 17 0 8 8 3 21 -13z"/>
<path d="M8422 7793 c-98 -101 -139 -203 -84 -211 30 -5 48 11 71 62 10 22 39
68 65 101 48 61 56 97 23 103 -11 2 -39 -18 -75 -55z"/>
<path d="M8520 7728 c-22 -23 -23 -31 -14 -66 5 -18 9 -20 21 -10 13 11 53 80
53 93 0 14 -42 2 -60 -17z"/>
<path d="M5549 8927 c-16 -35 -4 -77 21 -77 42 0 46 56 6 89 -13 11 -17 9 -27
-12z"/>
<path d="M4841 8751 c-11 -21 -25 -76 -30 -122 -7 -53 -20 -102 -36 -132 -17
-33 -25 -65 -25 -98 0 -54 26 -129 44 -129 12 0 56 41 56 52 0 3 -13 19 -29
36 -34 35 -33 43 12 143 39 87 66 233 51 273 -10 25 -22 19 -43 -23z"/>
<path d="M5432 8597 c-42 -42 -45 -57 -12 -57 20 0 65 47 75 78 10 36 -16 27
-63 -21z"/>
<path d="M6731 8605 c-20 -27 -23 -35 -41 -143 -11 -64 -6 -122 11 -122 28 0
98 235 82 277 -8 21 -30 15 -52 -12z"/>
<path d="M5510 8526 c0 -49 16 -62 26 -22 8 32 2 58 -13 64 -9 2 -13 -10 -13
-42z"/>
<path d="M6948 8506 c-39 -42 -50 -48 -58 -36 -5 8 -10 25 -10 38 0 12 -6 22
-14 22 -16 0 -56 -88 -56 -123 0 -57 68 -64 85 -10 9 33 40 52 56 36 5 -5 4
-24 -3 -45 -9 -29 -8 -41 2 -53 16 -20 46 -19 54 1 9 23 7 224 -1 223 -5 -1
-29 -24 -55 -53z"/>
<path d="M4310 8519 c-19 -12 -50 -34 -68 -50 -39 -35 -68 -37 -99 -7 -34 32
-50 6 -17 -27 17 -18 24 -35 24 -65 0 -22 5 -40 10 -40 6 0 10 7 10 15 0 34
171 175 213 175 14 0 29 5 32 10 12 19 -70 10 -105 -11z"/>
<path d="M4900 8508 c-22 -24 -23 -59 -3 -65 18 -6 63 42 63 67 0 27 -33 26
-60 -2z"/>
<path d="M4319 8479 c-50 -36 -139 -119 -139 -131 0 -14 43 -8 85 12 70 34
125 87 125 121 0 37 -16 37 -71 -2z"/>
<path d="M5414 8332 c-53 -39 -130 -123 -139 -153 -9 -29 -22 -39 -53 -39 -22
0 -112 -74 -112 -92 0 -15 50 0 90 26 51 33 242 218 263 255 24 41 5 42 -49 3z"/>
<path d="M6794 8294 c-12 -47 4 -215 40 -431 20 -117 40 -223 45 -237 11 -28
27 -40 36 -27 8 14 -12 202 -31 281 -8 36 -19 140 -23 231 -5 91 -14 176 -20
188 -16 29 -39 27 -47 -5z"/>
<path d="M6661 8266 c-17 -20 -10 -70 10 -74 18 -3 50 53 42 75 -7 17 -37 17
-52 -1z"/>
<path d="M4807 8216 c-61 -25 -85 -42 -125 -89 -31 -35 -237 -172 -315 -210
-31 -15 -81 -39 -111 -53 -59 -28 -102 -67 -92 -83 8 -13 52 3 81 28 11 10 40
21 64 24 28 4 82 28 160 73 64 38 149 85 189 106 41 20 81 43 89 50 35 28 133
149 133 163 0 19 -4 19 -73 -9z"/>
<path d="M6721 8146 c-9 -11 -10 -24 -4 -43 12 -36 30 -40 45 -8 10 22 9 29
-9 46 -17 18 -21 18 -32 5z"/>
<path d="M3998 8099 c-27 -15 -22 -37 12 -54 52 -27 100 -15 100 25 0 32 -75
51 -112 29z"/>
<path d="M4748 8025 c-74 -63 -168 -125 -263 -173 -91 -46 -127 -75 -119 -97
13 -32 19 -29 274 129 42 25 98 54 125 64 30 11 54 27 61 41 13 25 5 72 -13
78 -6 2 -35 -17 -65 -42z"/>
<path d="M6632 7995 c-7 -14 -12 -46 -12 -71 0 -60 20 -54 37 12 18 72 0 115
-25 59z"/>
<path d="M6732 7951 c-14 -40 0 -84 26 -79 25 5 28 59 4 88 l-19 23 -11 -32z"/>
<path d="M3467 7903 c-49 -12 19 -67 98 -80 34 -5 37 -4 33 18 -5 36 -84 73
-131 62z"/>
<path d="M5012 7890 c-56 -52 2 -92 61 -42 21 19 21 26 1 46 -21 21 -36 20
-62 -4z"/>
<path d="M3976 7875 c-19 -20 -20 -26 -3 -49 26 -36 84 4 61 42 -15 23 -38 26
-58 7z"/>
<path d="M3678 7823 c-10 -2 -18 -9 -18 -14 0 -18 55 -31 137 -32 80 -2 110 6
84 23 -23 14 -175 32 -203 23z"/>
<path d="M4852 7824 c-7 -3 -17 -15 -23 -26 -22 -40 51 -80 80 -44 7 8 11 27
9 43 -2 22 -9 28 -28 30 -14 1 -31 -1 -38 -3z"/>
<path d="M4560 7795 c-20 -24 -8 -50 26 -53 34 -3 70 28 61 53 -8 20 -70 20
-87 0z"/>
<path d="M6646 7778 c-19 -27 -20 -50 -4 -66 35 -35 74 8 56 60 -12 34 -31 36
-52 6z"/>
<path d="M3941 7765 c-46 -14 -91 -50 -91 -71 0 -7 8 -18 18 -23 23 -12 87 17
133 60 49 46 25 60 -60 34z"/>
<path d="M3600 7726 c0 -44 24 -70 51 -56 37 21 11 90 -34 90 -13 0 -17 -9
-17 -34z"/>
<path d="M4020 7672 c-31 -25 -18 -42 31 -42 46 0 64 24 34 46 -25 19 -38 18
-65 -4z"/>
<path d="M6655 7389 c-12 -33 43 -161 106 -246 41 -55 46 -72 27 -91 -11 -11
-6 -14 59 -37 7 -2 22 -26 35 -52 18 -38 28 -48 48 -48 46 0 36 35 -38 136
-38 52 -90 135 -116 184 -56 108 -111 178 -121 154z"/>
<path d="M2825 7370 c-11 -18 15 -31 49 -25 52 9 49 22 -6 32 -23 3 -38 1 -43
-7z"/>
<path d="M2433 7064 c-24 -10 -13 -35 22 -50 42 -17 108 -19 103 -2 -11 32
-93 66 -125 52z"/>
<path d="M2622 6969 c6 -17 155 -129 369 -277 90 -62 190 -132 221 -155 36
-25 61 -37 67 -32 6 6 0 39 -16 85 -13 41 -30 107 -37 145 -11 67 -13 70 -41
73 -17 2 -39 -4 -50 -12 -19 -15 -19 -16 23 -55 23 -22 42 -45 42 -51 0 -34
-99 11 -284 130 -192 123 -304 180 -294 149z"/>
<path d="M2455 6930 c11 -18 274 -188 341 -221 52 -26 66 -29 79 -19 8 7 15
16 15 21 0 16 -118 87 -263 160 -127 64 -188 84 -172 59z"/>
<path d="M2322 6899 c5 -16 94 -80 270 -194 152 -99 270 -193 458 -365 211
-193 279 -261 296 -296 8 -16 37 -52 64 -79 l50 -49 0 56 c0 68 -13 108 -36
108 -9 0 -73 58 -143 128 -69 71 -146 142 -171 159 -65 44 -230 221 -230 246
0 4 6 7 14 7 24 0 126 -83 316 -258 l185 -171 3 54 c4 65 -11 99 -40 92 -13
-4 -27 3 -41 20 -56 65 -292 243 -371 279 l-55 25 -45 -26 c-46 -27 -70 -27
-59 1 3 8 -3 24 -13 35 -21 23 -144 94 -299 171 -130 65 -159 76 -153 57z"/>
<path d="M1747 6679 c7 -7 15 -10 18 -7 3 3 -2 9 -12 12 -14 6 -15 5 -6 -5z"/>
<path d="M2642 5864 c-11 -20 0 -75 22 -109 18 -27 63 -34 72 -11 11 28 -51
136 -77 136 -5 0 -12 -7 -17 -16z"/>
<path d="M3130 5399 c0 -5 5 -7 10 -4 6 3 10 8 10 11 0 2 -4 4 -10 4 -5 0 -10
-5 -10 -11z"/>
<path d="M4410 8668 c-11 -18 -20 -39 -20 -47 0 -20 46 24 53 50 9 33 -12 31
-33 -3z"/>
<path d="M1518 7273 c7 -3 16 -2 19 1 4 3 -2 6 -13 5 -11 0 -14 -3 -6 -6z"/>
<path d="M7044 7080 c0 -13 4 -16 10 -10 7 7 7 13 0 20 -6 6 -10 3 -10 -10z"/>
<path d="M1828 6563 c6 -2 18 -2 25 0 6 3 1 5 -13 5 -14 0 -19 -2 -12 -5z"/>
<path d="M2045 6250 c3 -5 8 -10 11 -10 2 0 4 5 4 10 0 6 -5 10 -11 10 -5 0
-7 -4 -4 -10z"/>
<path d="M2541 5740 c14 -31 19 -36 19 -24 0 6 -7 19 -16 30 -14 18 -14 18 -3
-6z"/>
<path d="M1216 5639 c-13 -20 -16 -56 -16 -229 0 -212 8 -276 34 -296 9 -6 16
-25 16 -42 0 -30 14 -42 51 -42 29 0 34 25 12 62 -42 71 -46 99 -52 325 -6
232 -13 267 -45 222z"/>
<path d="M1596 5507 c-37 -49 -56 -100 -56 -155 0 -64 17 -87 58 -79 18 4 32
2 32 -3 0 -18 -50 -42 -91 -44 -22 -1 -45 -9 -50 -17 -5 -8 -9 -41 -9 -74 0
-42 -6 -70 -20 -93 -23 -38 -20 -57 18 -114 28 -43 85 -83 107 -74 23 9 18 43
-11 63 -67 47 -85 66 -82 87 2 13 12 22 26 24 57 8 147 -92 135 -151 -5 -26
-3 -28 18 -25 52 7 89 136 89 314 0 61 -5 135 -10 164 -18 96 -81 210 -116
210 -7 0 -24 -15 -38 -33z m78 -90 c15 -52 36 -216 36 -281 0 -46 -22 -66 -71
-66 -78 0 -139 47 -139 109 0 34 16 32 66 -9 79 -65 104 -50 104 62 0 74 -10
88 -55 81 -18 -3 -35 -1 -39 5 -8 13 39 142 55 153 20 12 27 2 43 -54z"/>
<path d="M1324 5374 c-8 -31 1 -103 14 -116 15 -15 50 25 58 67 5 27 2 41 -11
55 -25 28 -53 25 -61 -6z"/>
<path d="M1349 5195 c-3 -40 3 -70 17 -92 16 -26 44 -31 44 -8 0 20 -24 75
-44 100 l-15 20 -2 -20z"/>
<path d="M4976 12011 c-3 -5 4 -11 16 -15 28 -7 70 3 62 15 -7 12 -71 12 -78
0z"/>
<path d="M4575 11700 c-10 -16 57 -50 98 -50 44 0 47 11 11 39 -28 22 -98 29
-109 11z"/>
<path d="M3768 11554 c-27 -8 -48 -19 -48 -24 0 -17 143 -12 166 5 16 13 17
16 4 25 -21 13 -66 11 -122 -6z"/>
<path d="M8780 11327 c11 -12 218 -96 278 -113 45 -13 66 -14 73 -7 32 32 -71
77 -241 104 -36 5 -76 13 -90 16 -14 3 -23 3 -20 0z"/>
<path d="M8680 11250 c0 -30 -31 -40 -119 -40 -81 0 -111 -12 -69 -29 30 -12
669 -101 725 -101 23 0 44 4 48 10 3 5 -1 26 -10 46 -13 31 -18 35 -37 29 -50
-16 -101 -16 -195 -1 -116 18 -265 60 -310 86 -33 19 -33 19 -33 0z"/>
<path d="M8240 11221 c0 -21 121 -45 165 -33 l30 9 -32 16 c-34 18 -163 24
-163 8z"/>
<path d="M9305 11119 c-9 -17 -15 -42 -13 -57 3 -23 14 -30 98 -62 52 -20 165
-69 250 -109 85 -41 169 -74 185 -75 28 -1 30 1 33 40 2 22 -2 53 -9 70 l-12
29 -9 -32 c-7 -27 -14 -33 -36 -33 -40 0 -140 51 -250 127 -53 36 -119 81
-146 100 -26 18 -54 33 -62 33 -7 0 -21 -14 -29 -31z"/>
<path d="M8190 11114 c-14 -3 -44 -12 -67 -20 -28 -10 -48 -12 -60 -6 -10 5
-27 6 -38 2 -21 -8 -21 -8 29 -24 11 -4 100 -11 198 -16 98 -6 208 -15 246
-21 140 -21 186 -22 220 -5 29 15 32 15 32 0 0 -8 -14 -29 -31 -46 -34 -35
-16 -35 -299 -3 -162 18 -363 20 -389 4 -14 -9 -29 -8 -66 5 -51 17 -83 20
-109 10 -25 -9 -19 -24 9 -24 31 0 35 -34 6 -50 -29 -15 -123 -12 -148 5 -19
13 -22 13 -27 -1 -9 -23 -7 -94 2 -94 4 0 70 17 147 39 203 56 270 66 450 66
153 0 295 -17 295 -35 0 -24 -300 -23 -377 1 -28 9 -37 7 -59 -10 -21 -16 -41
-21 -91 -21 -58 0 -64 -2 -73 -24 -8 -22 -14 -24 -43 -19 -68 11 -386 -95
-413 -138 -10 -17 31 -8 296 61 264 69 290 74 310 60 13 -9 11 -14 -11 -34
-19 -16 -69 -33 -171 -58 -264 -65 -545 -168 -556 -204 -5 -20 78 2 316 82
176 60 240 77 286 78 59 1 59 1 68 -32 5 -18 16 -36 24 -39 9 -3 49 2 90 11
41 9 90 16 109 16 37 0 115 -27 115 -40 0 -4 -26 -14 -57 -21 -65 -16 -84 -39
-31 -39 48 1 116 34 115 56 -1 12 13 27 41 42 28 16 40 28 34 34 -11 11 -130
12 -272 3 -52 -4 -106 -3 -119 3 l-25 9 29 19 c24 16 52 20 170 22 77 2 163 4
191 5 37 2 57 -3 71 -15 17 -16 21 -16 34 -2 18 17 35 18 96 8 29 -4 48 -3 58
6 14 12 13 16 -12 35 -24 20 -26 25 -16 48 13 28 8 37 -19 37 -23 0 -25 35 -2
44 9 3 35 -3 59 -13 35 -15 44 -25 47 -48 3 -24 11 -31 65 -52 34 -13 60 -28
58 -32 -3 -4 -23 -10 -45 -14 -22 -4 -40 -12 -40 -19 0 -14 99 -65 280 -146
260 -116 508 -275 742 -477 60 -51 112 -93 118 -93 25 0 7 46 -32 82 -35 32
-40 41 -28 48 35 22 63 10 117 -47 29 -32 53 -61 53 -65 0 -12 69 -50 80 -43
19 11 10 27 -39 71 -27 25 -89 92 -137 150 -133 160 -358 344 -506 415 l-43
20 68 -5 c132 -10 234 -79 418 -280 285 -309 378 -329 116 -25 -89 104 -415
389 -506 442 l-30 17 6 -35 c5 -30 3 -35 -14 -35 -29 0 -43 20 -43 60 0 71
-58 90 -74 25 -5 -18 -13 -25 -29 -25 -31 0 -70 37 -62 59 19 44 17 50 -23 70
-50 26 -137 36 -175 22 -36 -14 -28 -27 25 -43 38 -11 40 -13 17 -18 -62 -15
-1 -65 171 -141 123 -54 108 -58 -49 -13 -79 23 -105 35 -198 90 -27 16 -36
17 -53 7 -26 -17 -55 -16 -90 2 -41 21 -38 45 14 93 49 45 99 73 164 93 23 7
41 17 39 23 -5 16 -135 49 -163 42 -15 -4 -29 -20 -38 -41 -23 -54 -52 -46
-65 18 -9 44 -48 68 -120 74 -57 5 -63 4 -68 -16 -6 -25 -33 -27 -89 -7 -79
27 -333 53 -404 40z m408 -303 c91 -18 70 -31 -64 -43 -105 -10 -329 1 -354
17 -58 36 262 56 418 26z m518 -132 c98 -34 402 -176 506 -236 85 -48 273
-203 293 -242 13 -27 13 -31 -1 -45 -28 -29 -61 -20 -89 24 -48 76 -226 192
-574 376 -281 149 -328 191 -135 123z"/>
<path d="M9242 10988 c2 -6 81 -50 176 -98 98 -49 187 -101 207 -120 20 -19
63 -46 97 -60 62 -25 73 -36 82 -80 3 -14 22 -35 43 -49 74 -49 124 -94 179
-162 67 -84 98 -107 119 -89 20 17 19 66 -2 86 -10 8 -49 38 -88 66 -129 94
-147 121 -103 150 12 8 18 19 14 26 -34 55 -739 377 -724 330z"/>
<path d="M8815 10580 c-48 -49 -69 -56 -101 -35 -61 40 -195 27 -255 -26 -33
-28 -33 -29 -15 -44 32 -25 54 -18 70 20 8 19 19 35 24 35 4 0 46 -10 92 -21
102 -26 157 -22 200 15 35 29 62 32 135 12 70 -18 140 -50 211 -97 69 -44 74
-46 74 -21 0 28 -37 57 -120 96 -69 32 -258 106 -270 106 -3 0 -23 -18 -45
-40z"/>
<path d="M8491 10082 c-56 -28 -53 -46 7 -40 53 5 107 32 97 48 -10 16 -67 11
-104 -8z"/>
<path d="M8840 10029 c0 -15 91 -62 123 -63 45 -1 48 16 6 36 -42 21 -129 39
-129 27z"/>
<path d="M8841 9956 c61 -53 225 -166 235 -162 23 9 16 33 -15 55 -45 32 -247
130 -220 107z"/>
<path d="M10170 9900 c0 -11 53 -40 72 -40 18 1 -39 50 -58 50 -8 0 -14 -4
-14 -10z"/>
<path d="M9680 9789 c0 -23 65 -89 87 -89 34 0 -2 72 -48 96 -36 18 -39 18
-39 -7z"/>
<path d="M8749 9694 c-9 -11 -10 -20 -2 -32 15 -24 44 -27 59 -7 28 38 -27 75
-57 39z"/>
<path d="M9520 9705 c0 -12 46 -96 122 -223 44 -73 110 -197 148 -275 88 -185
270 -664 270 -712 0 -40 30 -165 40 -165 8 0 50 101 50 121 0 9 -11 36 -24 60
-13 24 -43 105 -66 179 -23 74 -55 158 -70 185 -34 61 -86 222 -96 296 l-7 54
22 -20 c31 -27 76 -125 172 -377 46 -120 86 -218 90 -218 8 0 49 94 49 113 0
8 -10 17 -23 21 -17 4 -27 19 -39 60 -25 80 -121 277 -173 356 -47 71 -73 88
-113 76 -11 -4 -32 -2 -48 4 -27 11 -28 12 -11 25 26 19 18 39 -71 169 -126
187 -222 303 -222 271z"/>
<path d="M9660 9673 c0 -22 185 -329 223 -370 23 -26 45 -30 53 -9 7 18 -85
165 -181 289 -67 85 -95 113 -95 90z"/>
<path d="M9839 9591 c10 -28 68 -139 128 -248 61 -109 136 -246 167 -305 31
-60 61 -108 66 -108 5 0 12 17 15 38 3 20 15 80 26 132 31 137 30 142 -10 152
-42 11 -58 -1 -41 -32 20 -38 28 -77 19 -91 -16 -23 -85 63 -193 242 -107 177
-171 269 -186 269 -6 0 -1 -22 9 -49z"/>
<path d="M7693 9321 c-99 -78 -131 -143 -54 -111 44 18 156 123 147 138 -13
21 -43 13 -93 -27z"/>
<path d="M9500 8824 c0 -23 25 -163 40 -224 52 -210 84 -447 75 -558 -3 -31
-10 -113 -15 -182 -15 -176 -44 -340 -79 -445 -30 -93 -83 -291 -95 -357 -18
-102 54 18 98 162 14 47 48 182 76 300 60 255 88 346 102 332 7 -7 6 -47 -2
-125 -15 -129 -9 -182 21 -198 28 -14 30 -9 17 35 -9 29 -9 63 0 145 16 140
15 188 -2 198 -26 16 -36 53 -56 216 -21 176 -25 267 -12 267 26 0 118 -464
131 -663 7 -107 20 -142 42 -120 7 7 15 50 19 96 5 52 15 95 25 111 15 23 16
26 1 26 -23 0 -43 47 -49 118 -3 34 -12 73 -20 85 -17 27 -33 103 -42 202 -8
94 -22 143 -44 154 -16 9 -17 16 -8 55 8 37 7 53 -7 90 -10 26 -24 46 -31 46
-20 0 -27 -33 -15 -64 12 -33 13 -86 1 -86 -12 0 -44 79 -79 197 -36 120 -67
193 -81 193 -6 0 -11 -3 -11 -6z"/>
<path d="M7948 8793 c-25 -29 -38 -60 -38 -92 0 -38 18 -40 59 -6 39 33 47 60
27 90 -19 30 -28 31 -48 8z"/>
<path d="M8210 8763 c-95 -66 -133 -183 -60 -183 32 0 40 -14 14 -24 -27 -10
-64 -7 -95 10 -40 20 -56 13 -75 -33 -21 -50 -62 -103 -79 -103 -60 0 -30
-209 32 -218 35 -5 39 31 9 83 -27 45 -34 89 -16 100 32 20 81 -39 95 -117 5
-27 2 -45 -11 -68 -16 -26 -16 -32 -5 -39 23 -15 69 8 107 53 131 152 222 391
198 521 -8 43 -13 50 -34 53 -16 2 -44 -10 -80 -35z m76 -37 c14 -36 -82 -310
-121 -346 l-24 -22 -45 22 c-58 27 -86 63 -86 107 0 41 17 76 32 67 5 -4 21
-31 34 -61 13 -29 31 -56 40 -60 21 -8 56 28 84 86 27 58 22 79 -20 87 -43 9
-38 30 20 86 51 49 76 59 86 34z"/>
<path d="M9330 8621 c-23 -43 -6 -131 25 -131 20 0 35 32 35 75 0 43 -15 75
-35 75 -8 0 -19 -9 -25 -19z"/>
<path d="M7875 8600 c-19 -37 -19 -84 -1 -99 21 -18 36 15 36 78 0 58 -12 65
-35 21z"/>
<path d="M595 7736 c-22 -7 -53 -21 -68 -31 -65 -42 51 -36 120 6 60 37 30 51
-52 25z"/>
<path d="M9641 7452 c-21 -39 -7 -82 26 -82 17 0 17 61 -1 85 -13 18 -14 18
-25 -3z"/>
<path d="M8554 7412 c-81 -44 -203 -177 -227 -247 l-13 -38 -38 52 c-65 88
-111 105 -143 51 -39 -67 -170 -97 -288 -65 l-66 18 -25 -24 c-14 -14 -27 -42
-31 -63 -5 -32 -2 -41 20 -62 21 -19 25 -30 20 -54 -9 -45 15 -37 37 13 22 48
25 78 8 95 -8 8 -8 15 2 27 21 25 47 18 53 -14 8 -39 33 -45 105 -26 79 20
100 19 147 -6 34 -19 44 -20 72 -10 36 13 53 8 53 -15 0 -18 5 -18 36 2 20 14
83 88 293 346 29 36 25 41 -15 20z m-317 -237 c11 -31 -66 -81 -104 -67 -22 7
-14 21 29 52 46 33 66 37 75 15z"/>
<path d="M8963 7405 c-46 -66 -49 -68 -85 -67 -29 1 -45 -7 -81 -39 -42 -37
-107 -143 -107 -176 0 -29 32 -10 58 34 31 53 94 123 111 123 37 0 -70 -193
-187 -339 -54 -67 -62 -88 -38 -97 25 -9 45 9 100 92 29 43 78 116 109 162 54
81 150 263 162 310 9 31 -19 29 -42 -3z"/>
<path d="M8350 7029 c-71 -64 -96 -71 -137 -39 -34 27 -49 25 -88 -9 -33 -29
-77 -48 -175 -75 -105 -30 -104 -56 3 -56 55 0 57 -1 57 -26 0 -26 1 -27 51
-21 79 10 194 71 264 142 52 51 104 130 93 140 -1 2 -32 -24 -68 -56z m-157
-129 c-58 -35 -115 -61 -121 -56 -11 12 33 47 77 61 65 20 81 18 44 -5z"/>
<path d="M8595 7029 c-20 -18 -56 -62 -80 -100 -26 -41 -60 -78 -84 -94 -44
-27 -65 -61 -80 -124 -16 -72 7 -101 54 -67 18 13 18 17 5 56 l-14 42 92 86
c93 88 162 179 162 213 0 27 -14 24 -55 -12z"/>
<path d="M7950 7014 c-70 -18 -110 -34 -110 -44 0 -35 191 -21 232 17 48 43
-12 56 -122 27z"/>
<path d="M9305 6860 c-18 -34 -13 -50 15 -50 24 0 41 30 33 58 -8 31 -30 27
-48 -8z"/>
<path d="M8553 6795 c-22 -9 -33 -21 -33 -35 0 -23 17 -25 54 -9 55 25 34 67
-21 44z"/>
<path d="M9115 6655 c-5 -2 -29 -9 -52 -15 -41 -10 -57 -33 -30 -43 18 -6 67
10 88 29 28 25 25 40 -6 29z"/>
<path d="M8210 6560 c-92 -34 -232 -52 -425 -55 -180 -2 -219 -7 -212 -29 6
-17 260 -25 502 -14 124 5 149 9 221 37 82 32 123 55 113 65 -3 3 -36 8 -75
11 -55 4 -80 1 -124 -15z"/>
<path d="M9112 6550 c-24 -39 -27 -50 -12 -50 15 0 42 47 38 67 -3 14 -9 11
-26 -17z"/>
<path d="M8165 6423 c-67 -18 -130 -25 -243 -30 -166 -7 -206 -18 -167 -48 11
-9 31 -13 50 -11 95 15 302 28 365 24 62 -5 75 -3 91 13 22 22 25 65 7 71 -7
3 -53 -6 -103 -19z"/>
<path d="M8913 6404 c-75 -15 -150 -48 -176 -75 -14 -14 -24 -18 -40 -12 -47
17 -157 -3 -157 -28 0 -30 223 13 370 71 110 43 112 67 3 44z"/>
<path d="M7917 6303 c-15 -15 -6 -44 18 -55 19 -9 29 -7 50 6 26 17 26 18 9
37 -17 18 -64 26 -77 12z"/>
<path d="M878 6223 c-8 -10 -32 -44 -52 -77 -36 -57 -38 -58 -73 -53 -22 4
-46 1 -65 -9 -53 -27 -119 -142 -104 -181 9 -23 30 -2 76 78 36 61 55 79 81
79 19 0 7 -49 -31 -128 -54 -112 -70 -172 -70 -263 0 -135 27 -109 60 56 31
158 107 323 184 405 41 43 59 77 52 96 -7 19 -40 18 -58 -3z"/>
<path d="M8171 6186 c-15 -18 -6 -53 18 -66 27 -14 63 15 59 48 -2 22 -9 28
-34 30 -18 2 -36 -3 -43 -12z"/>
<path d="M8362 6184 c-39 -27 -23 -54 32 -54 21 0 46 17 46 31 0 12 -30 39
-43 39 -7 0 -23 -7 -35 -16z"/>
<path d="M1093 5948 c-41 -66 -109 -217 -139 -309 -38 -117 -35 -113 -90 -119
-44 -4 -51 -9 -66 -40 -9 -19 -30 -97 -45 -172 -25 -124 -26 -139 -12 -153 27
-27 45 9 57 118 13 116 41 184 79 194 51 12 81 -32 43 -64 -68 -57 -98 -223
-40 -223 67 0 155 -193 124 -274 -15 -39 -64 -6 -64 43 0 11 -7 27 -17 36 -15
16 -17 16 -26 0 -12 -22 -4 -92 14 -131 18 -37 44 -42 75 -13 l23 22 28 -30
c16 -17 58 -79 93 -139 87 -145 195 -256 300 -306 91 -44 262 -108 307 -115
25 -4 43 1 74 21 24 17 39 33 35 41 -2 7 10 32 27 55 80 104 107 145 107 162
0 25 -10 23 -58 -12 -44 -32 -119 -120 -133 -157 -10 -28 -49 -30 -154 -8
-202 42 -396 207 -508 430 -80 161 -114 300 -124 509 -6 120 -8 132 -30 152
l-24 22 35 27 c29 22 34 31 30 55 -7 34 27 174 59 244 14 28 36 65 51 81 33
38 41 62 26 80 -19 23 -28 18 -57 -27z m-163 -658 c0 -27 -4 -50 -10 -50 -5 0
-10 23 -10 50 0 28 5 50 10 50 6 0 10 -22 10 -50z"/>
<path d="M279 5953 c-75 -81 -94 -175 -24 -115 44 36 68 91 56 125 -6 16 -9
15 -32 -10z"/>
<path d="M136 5930 c-37 -41 -46 -70 -22 -70 32 0 106 86 89 104 -14 14 -32 4
-67 -34z"/>
<path d="M514 5828 c-4 -7 -8 -32 -9 -56 -1 -52 -29 -82 -76 -82 -34 0 -37
-10 -9 -28 32 -20 50 -80 61 -197 5 -60 14 -132 19 -160 10 -48 39 -115 50
-115 3 0 5 64 5 143 0 128 2 146 23 184 12 23 22 47 22 54 0 11 -5 10 -67 -7
-21 -6 -23 -3 -23 27 0 18 12 71 26 117 14 46 24 93 22 105 -3 25 -32 35 -44
15z"/>
<path d="M417 5813 c-13 -13 -7 -50 11 -66 24 -22 32 -13 32 35 0 30 -4 38
-18 38 -10 0 -22 -3 -25 -7z"/>
<path d="M72 5780 c-24 -22 -38 -63 -27 -79 13 -22 115 57 115 90 0 18 -66 9
-88 -11z"/>
<path d="M880 5770 c-23 -32 -60 -132 -60 -162 0 -13 6 -18 18 -16 17 3 85
128 98 181 5 23 3 27 -14 27 -11 0 -30 -13 -42 -30z"/>
<path d="M189 5682 c-16 -33 -26 -309 -11 -324 13 -13 31 90 39 228 6 116 -3
147 -28 96z"/>
<path d="M290 5656 c-12 -32 -12 -142 0 -171 7 -18 9 -18 20 10 17 40 19 160
3 176 -10 10 -14 6 -23 -15z"/>
<path d="M41 5544 c-25 -32 -26 -38 -5 -59 21 -20 36 -15 52 18 10 20 10 32 2
47 -14 27 -24 25 -49 -6z"/>
<path d="M364 5527 c-3 -8 -1 -39 5 -69 21 -115 51 -142 50 -45 0 84 -37 160
-55 114z"/>
<path d="M626 5525 c-9 -25 -7 -348 4 -459 5 -54 14 -104 20 -111 6 -7 20 -66
31 -132 30 -176 35 -193 63 -193 42 0 48 21 25 86 -48 140 -84 343 -94 539
-11 210 -30 317 -49 270z"/>
<path d="M700 5452 c0 -17 28 -52 42 -52 12 0 17 45 6 57 -16 20 -48 16 -48
-5z"/>
<path d="M146 5271 c-16 -11 -34 -27 -39 -36 -8 -15 -6 -15 22 -1 36 19 45 9
30 -33 -12 -33 -5 -81 11 -81 31 0 54 132 28 158 -16 16 -18 15 -52 -7z"/>
<path d="M295 5230 c-21 -34 -16 -180 6 -180 16 0 39 65 39 110 0 60 -26 100
-45 70z"/>
<path d="M470 5163 c0 -29 4 -43 9 -37 17 17 17 84 1 84 -5 0 -10 -21 -10 -47z"/>
<path d="M877 5123 c-13 -12 -7 -62 9 -77 12 -12 20 -13 35 -6 25 14 24 41 -1
68 -22 23 -32 27 -43 15z"/>
<path d="M404 5015 c2 -49 10 -115 17 -145 11 -50 13 -52 20 -28 8 29 13 112
11 170 -1 24 -11 47 -28 65 l-25 28 5 -90z"/>
<path d="M541 5037 c-22 -124 -10 -248 25 -261 16 -6 34 23 34 56 1 42 -34
268 -41 268 -4 0 -12 -28 -18 -63z"/>
<path d="M760 5061 c0 -49 17 -62 42 -31 16 20 17 25 5 44 -8 12 -22 22 -31
24 -13 3 -16 -5 -16 -37z"/>
<path d="M283 4974 c-7 -19 34 -154 46 -154 10 0 21 35 21 68 0 55 -53 123
-67 86z"/>
<path d="M780 4938 c0 -31 56 -148 71 -148 16 0 3 63 -24 119 -25 51 -47 65
-47 29z"/>
<path d="M177 4943 c-9 -8 -9 -46 -1 -68 10 -24 24 1 24 43 0 30 -9 40 -23 25z"/>
<path d="M2227 4762 c-26 -29 -48 -101 -54 -178 -7 -87 1 -124 26 -124 34 0
48 31 56 125 14 192 10 219 -28 177z"/>
<path d="M561 4672 c-12 -40 -26 -72 -31 -72 -5 0 -19 14 -31 32 l-23 32 -7
-24 c-8 -29 -1 -97 13 -122 11 -22 51 -23 68 -3 7 8 9 26 5 43 -4 20 -1 33 9
42 22 17 46 5 46 -23 0 -32 23 -60 46 -55 31 6 28 36 -9 112 -60 121 -61 121
-86 38z"/>
<path d="M2326 4708 c-20 -28 -20 -67 0 -93 13 -17 16 -18 24 -5 12 19 13 107
1 115 -5 3 -17 -5 -25 -17z"/>
<path d="M327 4693 c-22 -21 21 -209 59 -258 43 -56 32 114 -15 238 -10 26
-30 35 -44 20z"/>
<path d="M845 4653 c3 -21 17 -56 29 -78 13 -22 26 -59 30 -82 20 -130 193
-381 256 -371 22 3 22 5 -19 52 -68 78 -90 117 -205 359 -75 155 -105 195 -91
120z"/>
<path d="M2862 4618 c-7 -7 -12 -24 -12 -39 0 -45 -16 -75 -53 -97 -43 -25
-69 -95 -71 -191 -2 -123 37 -118 48 6 7 73 27 133 45 133 25 0 14 -217 -18
-373 -19 -93 -15 -132 13 -121 18 7 36 49 36 85 0 17 9 90 21 162 13 82 21
188 22 279 2 147 -5 182 -31 156z"/>
<path d="M760 4566 c0 -65 84 -250 193 -423 113 -181 135 -231 108 -248 -29
-17 -283 378 -321 500 -19 59 -39 85 -66 85 -19 0 -24 -5 -24 -24 0 -33 114
-254 183 -354 31 -46 55 -88 52 -93 -4 -5 28 -47 69 -94 42 -46 76 -91 76 -99
0 -7 -7 -19 -15 -26 -8 -7 -15 -20 -15 -30 0 -21 57 -73 74 -67 7 2 12 37 14
90 2 60 7 87 15 87 7 0 57 -34 112 -75 122 -92 246 -156 313 -163 62 -5 77 12
39 43 -15 11 -27 24 -27 29 0 5 27 6 60 4 48 -3 64 -9 84 -31 13 -15 48 -33
79 -42 62 -18 158 -17 164 2 7 20 -36 35 -118 40 -44 3 -79 9 -79 13 0 4 18
15 41 25 52 24 38 31 -79 39 -116 8 -144 18 -140 49 3 19 10 23 63 27 l60 5
-29 19 c-17 12 -52 22 -87 24 -56 4 -59 3 -69 -22 -15 -40 -61 -35 -135 15
-87 58 -130 79 -166 79 -54 0 -139 69 -139 112 0 8 -31 63 -69 122 -39 59 -79
135 -90 169 -28 81 -103 230 -118 235 -8 2 -13 -6 -13 -22z m594 -741 c151
-73 164 -84 148 -120 -15 -33 -32 -31 -67 5 -20 21 -35 28 -48 24 -24 -8 -87
36 -137 97 -38 45 -46 59 -34 59 3 0 65 -29 138 -65z"/>
<path d="M521 4441 c-31 -20 32 -128 246 -423 105 -145 145 -189 160 -174 11
11 -101 184 -182 281 -23 28 -68 100 -99 162 -62 119 -102 168 -125 154z"/>
<path d="M2475 4400 c-45 -71 -79 -187 -79 -271 -1 -86 3 -84 -85 -39 -68 34
-121 23 -121 -25 0 -33 -52 -107 -98 -138 -48 -34 -105 -56 -147 -57 -36 0
-48 -8 -64 -38 -22 -42 9 -122 49 -122 23 0 40 -20 40 -47 0 -13 5 -23 10 -23
6 0 10 25 10 55 0 47 -4 60 -26 81 -24 25 -24 27 -9 51 l17 25 27 -26 c15 -14
32 -26 38 -26 6 0 33 17 60 39 69 54 105 71 153 71 31 0 47 6 66 27 23 25 25
25 43 9 19 -17 20 -17 36 14 13 26 69 251 112 453 8 38 -2 34 -32 -13z m-165
-367 c0 -28 -44 -83 -67 -83 -19 0 -16 40 7 78 25 41 60 44 60 5z"/>
<path d="M422 4348 c-25 -25 -8 -78 26 -78 9 0 12 12 10 42 -3 44 -16 56 -36
36z"/>
<path d="M3407 4293 c-4 -3 -7 -24 -7 -45 0 -31 4 -38 20 -38 29 0 41 29 24
62 -15 28 -25 34 -37 21z"/>
<path d="M515 4250 c-9 -15 36 -63 48 -51 5 5 7 19 5 32 -3 26 -41 39 -53 19z"/>
<path d="M2708 4123 c-22 -27 -29 -49 -43 -151 -8 -52 -21 -105 -30 -119 -29
-44 -36 -84 -24 -145 6 -31 19 -64 28 -73 16 -14 20 -13 40 9 18 19 21 28 12
44 -6 11 -17 22 -26 26 -23 9 -18 56 14 128 45 98 73 253 53 286 -7 10 -12 8
-24 -5z"/>
<path d="M614 4078 c8 -39 23 -58 47 -58 27 0 24 32 -6 64 -33 36 -49 34 -41
-6z"/>
<path d="M506 4091 c-14 -22 28 -131 44 -115 5 5 4 30 -1 56 -11 48 -32 77
-43 59z"/>
<path d="M1234 4046 c-9 -36 10 -64 39 -59 18 4 37 -7 76 -41 55 -49 101 -64
81 -26 -14 27 -159 150 -176 150 -8 0 -16 -11 -20 -24z"/>
<path d="M2476 3990 c-35 -94 -62 -121 -109 -110 -44 9 -64 -2 -72 -43 -5 -22
-34 -58 -97 -119 -109 -107 -108 -130 3 -72 34 17 59 13 59 -11 0 -32 35 -13
99 54 102 104 156 222 149 326 l-3 50 -29 -75z m-120 -245 c-26 -36 -49 -65
-52 -65 -2 0 -4 11 -4 25 0 17 15 41 46 71 26 24 49 43 52 40 2 -3 -17 -35
-42 -71z"/>
<path d="M3295 3957 c-39 -36 -47 -48 -38 -58 16 -16 57 10 78 52 27 51 12 53
-40 6z"/>
<path d="M700 3952 c0 -49 109 -179 226 -268 66 -51 95 -86 81 -100 -9 -9 -70
27 -139 82 -114 92 -174 119 -131 59 21 -29 333 -284 384 -314 19 -10 58 -24
88 -30 34 -7 66 -22 88 -41 35 -32 73 -40 73 -16 0 22 -57 67 -165 128 -114
65 -164 103 -152 114 5 5 35 -1 68 -13 100 -36 219 -113 296 -190 63 -63 77
-72 119 -79 57 -8 95 9 104 46 7 30 38 37 92 21 46 -14 48 -24 8 -41 -56 -23
-47 -33 23 -26 90 10 140 -5 166 -49 11 -19 27 -35 36 -35 38 0 102 101 90
141 -4 10 -15 24 -25 29 -17 9 -18 7 -13 -23 3 -24 0 -39 -12 -50 -24 -25 -42
-21 -87 17 -81 70 -190 108 -387 137 -163 24 -160 22 -381 159 -156 96 -242
165 -323 260 -77 92 -127 123 -127 82z m861 -568 c36 -22 53 -54 29 -54 -30 0
-120 62 -120 83 0 14 47 -1 91 -29z"/>
<path d="M3366 3904 c-8 -30 1 -67 15 -59 12 8 12 72 0 79 -5 3 -12 -6 -15
-20z"/>
<path d="M616 3904 c-11 -28 -6 -51 14 -69 16 -15 22 -15 35 -5 21 17 19 46
-5 70 -24 24 -36 25 -44 4z"/>
<path d="M2757 3862 c-21 -23 -22 -62 -2 -62 20 0 55 40 55 62 0 24 -32 24
-53 0z"/>
<path d="M1727 3853 c-11 -10 -8 -18 13 -41 23 -25 70 -30 70 -8 0 16 -46 56
-65 56 -6 0 -15 -3 -18 -7z"/>
<path d="M2179 3829 c-50 -36 -139 -119 -139 -131 0 -26 106 21 165 73 25 22
35 39 35 60 0 37 -7 36 -61 -2z"/>
<path d="M1175 3700 c-7 -12 44 -67 70 -74 26 -7 49 8 42 28 -8 19 -66 56 -89
56 -9 0 -19 -4 -23 -10z"/>
<path d="M3240 3659 c-54 -45 -81 -78 -116 -144 -6 -11 -26 -23 -44 -26 -37
-8 -76 -34 -98 -67 -13 -20 -13 -22 5 -22 11 0 41 14 67 31 54 36 247 223 265
257 20 38 -12 27 -79 -29z"/>
<path d="M1346 3592 c-8 -14 27 -37 101 -68 57 -23 133 -32 133 -16 0 13 -41
48 -79 67 -42 21 -145 32 -155 17z"/>
<path d="M2643 3556 c-41 -20 -78 -45 -89 -61 -34 -53 -297 -225 -404 -264
-54 -20 -130 -74 -130 -92 0 -19 41 -8 73 21 21 18 41 27 53 24 21 -5 125 44
271 128 50 29 114 65 141 80 73 40 206 200 165 198 -5 -1 -40 -16 -80 -34z"/>
<path d="M1792 3570 c-143 -15 -159 -22 -147 -59 10 -33 58 -42 138 -27 84 17
247 74 247 87 0 10 -132 10 -238 -1z"/>
<path d="M800 3531 c18 -35 117 -115 192 -157 58 -32 73 -45 72 -62 -1 -21 3
-22 41 -16 37 5 46 2 77 -25 36 -31 71 -40 83 -20 12 18 -27 49 -125 99 -52
27 -127 73 -165 103 -66 50 -152 97 -175 97 -7 0 -8 -6 0 -19z"/>
<path d="M1863 3449 c-34 -13 -28 -38 14 -56 33 -13 41 -13 62 -2 13 8 26 19
28 26 8 23 -68 47 -104 32z"/>
<path d="M2645 3408 c-11 -6 -46 -35 -78 -64 -34 -30 -108 -78 -179 -115 -133
-70 -171 -99 -162 -124 9 -23 33 -13 174 75 136 85 221 130 244 130 17 0 46
38 46 60 0 9 -6 24 -12 33 -10 13 -17 14 -33 5z"/>
<path d="M2872 3244 c-29 -20 -26 -58 4 -62 11 -2 32 6 45 17 20 16 22 23 13
38 -15 24 -34 27 -62 7z"/>
<path d="M1312 3233 c3 -20 54 -47 106 -58 28 -6 32 -4 32 14 0 29 -55 61
-103 61 -31 0 -38 -3 -35 -17z"/>
<path d="M1837 3229 c-23 -14 -21 -46 4 -59 15 -9 24 -8 35 1 33 27 -1 79 -39
58z"/>
<path d="M2699 3161 c-19 -16 -22 -23 -13 -37 31 -51 79 -41 79 17 0 27 -4 35
-21 37 -11 2 -32 -6 -45 -17z"/>
<path d="M1516 3162 c-10 -17 59 -32 147 -32 75 0 100 11 55 24 -46 13 -195
19 -202 8z"/>
<path d="M2420 3145 c-17 -20 -8 -49 16 -53 28 -4 69 30 61 51 -8 21 -60 23
-77 2z"/>
<path d="M1822 3119 c-74 -14 -126 -58 -107 -89 11 -18 48 -10 96 21 85 54 90
82 11 68z"/>
<path d="M1455 3091 c-9 -28 11 -71 34 -71 30 0 45 24 30 52 -22 41 -54 51
-64 19z"/>
<path d="M1871 3021 c-8 -5 -11 -16 -8 -26 5 -12 17 -15 44 -13 30 2 38 7 38
23 0 15 -8 21 -30 23 -16 1 -36 -2 -44 -7z"/>
<path d="M11596 1551 c-3 -4 3 -16 14 -26 18 -16 18 -16 13 4 -6 25 -19 35
-27 22z"/>
</g>
</svg>
